{"glyphs":{"0":{"ha":638,"x_min":-40,"x_max":676,"o":"m 326 883 q 414 940 374 914 q 497 988 454 967 q 543 1000 519 999 q 588 994 567 1001 q 628 972 610 986 q 657 935 646 957 q 672 889 668 914 q 676 840 675 864 q 666 753 676 796 q 639 671 656 711 q 540 483 599 571 q 407 319 482 396 q 239 172 331 240 q 187 140 215 154 q 129 118 158 126 q 66 112 96 107 q 13 133 36 117 q -26 177 -11 150 q -40 238 -40 204 q -37 303 -40 269 q -25 368 -33 336 q 69 610 11 494 q 211 829 128 726 q 247 867 228 850 q 286 903 267 883 q 310 892 300 897 q 326 883 321 886 m 43 163 q 122 182 85 165 q 194 224 160 199 q 401 412 311 307 q 556 647 492 517 q 589 735 576 690 q 613 825 601 781 q 619 883 619 854 q 600 936 618 911 q 563 942 581 946 q 531 929 546 938 q 485 902 508 915 q 442 874 463 889 q 321 766 376 825 q 215 640 265 707 q 109 474 153 561 q 61 282 65 386 q 44 270 53 275 q 26 261 35 265 q 23 211 22 236 q 43 163 24 186 z "},"1":{"ha":368,"x_min":-21,"x_max":585,"o":"m 578 1046 q 574 991 585 1013 q 550 950 564 969 q 504 881 528 914 q 457 814 481 847 q 276 549 364 681 q 111 274 188 417 q 90 233 100 254 q 69 192 81 213 q 41 127 54 160 q 43 51 28 94 q 6 73 19 64 q -15 92 -8 82 q -21 115 -21 103 q -17 146 -21 128 q 9 217 -4 182 q 40 288 22 253 q 201 572 113 435 q 385 843 289 708 q 444 924 414 883 q 510 1013 474 964 q 479 1004 490 1007 q 461 997 468 1001 q 283 888 367 949 q 125 753 199 828 q 99 717 110 738 q 74 676 88 697 q 21 713 44 671 q 85 799 46 761 q 168 872 125 836 q 335 996 249 940 q 526 1088 422 1051 q 554 1065 542 1075 q 578 1046 567 1056 z "},"2":{"ha":690,"x_min":-117,"x_max":649,"o":"m 315 411 q 410 397 358 406 q 503 369 461 388 q 572 319 546 350 q 594 243 599 289 q 428 328 511 301 q 253 354 344 354 q 126 256 189 304 q -15 179 64 207 q -97 194 -64 161 q -115 228 -112 211 q -110 260 -117 244 q -92 290 -104 276 q -64 315 -79 304 q 68 383 -1 364 q 206 413 138 401 q 368 567 289 488 q 517 739 447 647 q 575 833 546 781 q 589 872 583 853 q 589 917 594 892 q 554 931 572 929 q 517 931 536 933 q 308 868 401 919 q 147 719 215 817 q 117 662 128 693 q 115 593 107 631 q 139 576 126 586 q 164 556 151 567 q 103 564 126 549 q 69 613 81 579 q 63 665 60 639 q 79 714 67 690 q 113 769 94 742 q 153 821 131 797 q 499 983 294 968 l 533 983 q 588 967 564 981 q 626 933 611 954 q 644 886 640 913 q 639 831 649 860 q 565 690 615 753 q 468 577 518 632 q 368 465 418 522 q 344 440 357 453 q 315 411 331 426 m -19 261 q 26 278 4 267 q 72 314 49 290 q 18 294 39 307 q -19 261 -3 281 z "},"3":{"ha":571,"x_min":-175,"x_max":603,"o":"m 88 657 q 284 794 189 729 q 472 925 379 858 q 499 948 479 929 q 533 987 518 967 q 548 1023 547 1007 q 517 1039 549 1039 q 329 999 417 1032 q 169 893 242 965 q 140 854 153 876 q 113 808 128 832 q 99 824 106 815 q 85 843 92 833 q 109 906 92 879 q 150 954 126 932 q 515 1085 306 1092 q 529 1083 522 1083 q 543 1081 536 1083 q 574 1065 561 1076 q 595 1038 588 1053 q 602 1006 603 1022 q 593 972 601 989 q 522 884 565 925 q 429 806 479 843 q 328 736 379 769 q 238 672 278 703 q 272 662 257 665 q 300 651 286 658 q 342 628 321 640 q 382 600 364 615 q 462 469 451 540 q 424 319 472 397 q 348 225 392 267 q 251 149 304 183 q 26 56 151 83 q -11 51 8 53 q -50 50 -31 50 q -128 81 -94 53 q -172 153 -161 108 q -171 163 -175 158 q -162 179 -167 168 q -135 143 -147 158 q -108 119 -122 128 q -75 110 -93 111 q -31 113 -57 108 q 174 188 81 136 q 343 326 268 239 q 384 383 367 354 q 408 449 401 413 q 349 579 422 531 q 274 607 313 600 q 194 614 236 614 q 163 611 179 613 q 128 608 147 610 q 112 631 121 619 q 88 657 103 642 z "},"4":{"ha":581,"x_min":-12,"x_max":810,"o":"m 233 75 q 247 44 242 57 q 260 21 253 32 q 244 14 244 14 q 196 56 207 35 q 192 114 185 78 q 219 215 201 165 q 260 311 238 264 q 305 403 282 358 q 347 494 328 449 q 364 526 354 510 q 386 568 374 543 q 358 555 368 560 q 342 547 349 550 q 246 504 293 525 q 150 464 199 483 q 116 456 135 457 q 82 454 97 454 q 38 465 57 454 q 6 492 18 475 q -9 531 -6 510 q -4 575 -12 553 q 29 636 8 610 q 226 864 122 761 q 435 1068 331 967 q 458 1087 446 1078 q 486 1107 471 1096 q 505 1087 497 1096 q 519 1069 513 1078 q 503 1042 510 1054 q 492 1022 496 1029 q 458 1003 472 1011 q 433 986 444 996 q 328 873 385 928 q 218 760 272 818 q 117 641 164 703 q 40 508 69 579 q 267 578 163 525 q 464 706 372 632 q 546 789 510 740 q 617 889 582 838 q 688 989 651 940 q 769 1071 724 1038 q 790 1051 781 1060 q 810 1032 800 1043 q 785 988 794 1007 q 764 950 775 968 q 572 719 682 826 q 542 688 557 704 q 515 651 526 671 q 391 440 449 547 q 285 219 333 332 q 258 146 269 183 q 233 75 246 108 z "},"5":{"ha":649,"x_min":-81,"x_max":767,"o":"m 224 656 q 276 672 250 663 q 329 689 301 682 q 397 696 363 696 q 465 682 432 696 q 550 603 529 656 q 540 488 571 550 q 511 441 528 464 q 475 397 494 418 q 291 255 392 310 q 76 167 190 200 q 33 161 58 161 q -49 189 -17 161 q -72 263 -81 217 q -34 231 -51 246 q 10 221 -17 217 q 141 269 78 239 q 264 335 204 299 q 359 401 314 367 q 442 479 404 435 q 483 549 472 515 q 483 605 493 582 q 442 636 474 628 q 358 632 411 644 q 249 593 300 618 q 151 535 199 568 q 116 510 133 522 q 79 483 99 499 q 56 506 67 494 q 32 531 46 517 q 166 704 93 625 q 310 867 239 783 q 289 874 300 872 q 269 881 278 876 q 253 893 260 885 q 247 919 247 901 q 269 924 258 921 q 292 929 281 926 q 494 930 393 929 q 696 931 594 931 q 740 923 719 931 q 767 882 760 915 q 703 876 735 875 q 642 876 672 878 q 582 874 613 874 q 522 874 551 874 l 393 874 q 303 768 347 821 q 214 663 258 715 q 224 656 217 658 z "},"6":{"ha":449,"x_min":-61,"x_max":531,"o":"m -6 490 q -17 533 -8 510 q 14 548 -1 542 q 42 560 29 554 q 172 728 107 650 q 297 868 236 807 q 410 972 357 929 q 507 1035 464 1015 q 522 1023 517 1028 q 528 1014 526 1018 q 530 1004 531 1010 q 528 989 529 999 q 478 952 501 968 q 433 917 456 936 q 287 767 354 846 q 157 603 219 688 q 142 580 149 592 q 126 553 135 568 q 159 542 144 546 q 189 531 174 538 q 267 482 233 513 q 321 406 301 451 q 296 261 363 325 q 204 201 256 221 q 94 179 153 182 q 28 194 60 178 q -24 238 -3 211 q -53 298 -46 265 q -50 363 -61 331 q -28 426 -39 394 q -6 490 -17 458 m 11 251 q 249 308 147 213 q 283 388 289 344 q 232 458 276 431 q 161 488 197 479 q 85 494 125 496 q 54 438 69 465 q 27 381 39 410 q 10 319 15 351 q 11 251 4 288 z "},"7":{"ha":665,"x_min":18,"x_max":729,"o":"m 496 663 q 532 647 513 651 q 569 635 551 642 q 601 616 586 628 q 624 581 615 604 q 574 589 599 583 q 524 598 549 594 q 476 599 500 601 q 426 585 451 597 q 338 484 386 543 q 244 364 290 425 q 158 244 197 303 q 99 144 119 186 q 124 100 111 124 q 103 70 118 79 q 67 57 88 61 q 45 81 56 68 q 25 104 35 93 q 38 169 25 140 q 67 225 51 197 q 160 373 111 301 q 265 513 210 444 q 282 534 274 522 q 301 557 290 546 q 172 535 242 560 q 40 465 103 510 q 28 485 33 476 q 18 504 24 493 q 56 548 33 532 q 107 572 79 564 q 202 603 154 590 q 300 629 250 615 q 339 639 319 636 q 378 647 358 642 q 510 790 446 719 q 642 931 575 860 q 649 942 646 935 q 660 957 653 949 q 525 956 597 958 q 381 943 453 954 q 240 910 308 932 q 118 854 172 889 q 101 876 110 865 q 85 899 92 888 q 206 953 132 928 q 360 996 279 978 q 520 1021 442 1014 q 653 1019 599 1028 q 713 983 696 1014 q 708 914 729 951 q 689 885 699 899 q 667 858 679 871 q 601 785 635 821 q 536 713 568 749 q 516 689 525 701 q 496 663 507 676 z "},"8":{"ha":542,"x_min":-82,"x_max":625,"o":"m 93 503 q 94 653 82 582 q 142 781 107 724 q 231 881 176 839 q 357 947 285 924 q 435 965 396 961 q 515 957 475 968 q 599 900 574 944 q 603 799 625 856 q 574 738 592 768 q 535 681 556 708 q 460 579 499 628 q 385 479 421 531 q 323 390 353 435 q 265 306 293 346 q 268 288 267 294 q 269 278 269 282 q 280 231 278 249 q 277 199 282 213 q 258 174 272 185 q 219 147 244 163 q 200 131 208 140 q 185 115 192 122 q 142 124 161 119 q 103 131 122 129 q 48 139 75 133 q -4 160 21 144 q -64 231 -46 188 q -60 328 -82 274 q -16 401 -42 368 q 40 461 10 433 q 65 481 51 472 q 93 503 78 490 m 150 471 q 186 408 171 435 q 224 361 201 381 q 317 492 265 429 q 417 620 368 556 q 505 752 465 685 q 563 894 544 819 q 385 897 464 925 q 240 806 306 868 q 149 666 174 742 q 146 524 124 590 q 172 523 158 522 q 197 522 185 524 q 219 512 210 519 q 236 485 229 504 q 196 478 215 482 q 150 471 176 475 m -22 232 q 67 192 24 199 q 167 206 111 186 q 186 260 176 232 q 207 318 196 289 q 163 382 185 350 q 117 447 140 414 q 24 353 63 403 q -22 232 -14 303 z "},"9":{"ha":669,"x_min":4,"x_max":740,"o":"m 439 696 q 422 708 428 703 q 411 718 417 714 q 431 753 418 731 q 456 801 443 776 q 478 851 468 826 q 491 894 489 876 q 483 919 493 911 q 447 919 474 928 q 393 903 419 913 q 343 881 367 894 q 78 574 160 772 q 63 524 68 550 q 68 471 58 499 q 122 462 96 456 q 174 478 149 468 q 292 544 236 506 q 400 625 349 582 q 528 747 469 683 q 644 876 588 810 q 670 908 657 893 q 699 943 683 924 q 719 927 710 935 q 740 913 729 919 q 735 892 738 901 q 731 876 733 883 q 636 663 685 768 q 526 457 588 557 q 434 317 485 383 q 319 194 383 251 q 240 133 282 161 q 150 86 199 104 q 95 83 122 75 q 47 111 68 92 q 17 158 26 131 q 19 217 8 186 q 49 207 40 217 q 61 184 57 197 q 69 157 65 171 q 83 135 72 143 q 134 149 111 135 q 181 178 157 163 q 313 286 253 226 q 421 418 374 346 q 505 558 465 488 q 586 701 544 629 q 590 711 589 706 q 596 732 590 717 q 569 711 579 719 q 550 693 560 703 q 426 575 490 631 q 289 475 363 519 q 161 414 226 440 q 101 409 131 403 q 44 438 71 415 q 15 476 25 456 q 7 524 4 496 q 12 561 10 543 q 21 597 14 579 q 144 799 67 714 q 333 942 221 885 q 378 959 354 953 q 425 967 401 965 q 486 959 460 969 q 527 928 513 949 q 543 878 542 907 q 529 818 544 850 q 439 696 501 754 z "},"\u0000":{"ha":0,"x_min":0,"x_max":0,"o":""},"\r":{"ha":494,"x_min":0,"x_max":0,"o":""}," ":{"ha":494,"x_min":0,"x_max":0,"o":""},"%":{"ha":965,"x_min":8,"x_max":808,"o":"m 663 1056 q 686 1036 675 1044 q 704 1021 697 1028 q 558 814 629 918 q 422 602 486 710 q 306 382 358 494 q 217 149 253 269 q 190 152 199 146 q 181 169 181 158 q 205 321 181 246 q 257 456 229 396 q 444 773 343 625 q 663 1056 544 921 m 228 983 q 280 1017 256 1001 q 331 1044 304 1032 q 384 1049 357 1058 q 426 1014 411 1040 q 435 987 433 1001 q 438 957 436 972 q 431 906 438 932 q 415 857 425 881 q 356 746 392 797 q 276 650 321 694 q 175 563 229 600 q 110 531 149 542 q 40 540 69 518 q 8 601 10 561 q 10 640 8 621 q 18 678 13 658 q 74 822 40 753 q 158 951 108 890 q 181 974 169 964 q 204 994 193 983 q 228 983 219 989 m 76 582 q 118 592 99 583 q 157 614 138 600 q 350 838 282 701 q 367 884 361 860 q 381 932 374 908 q 384 962 385 947 q 374 990 383 976 q 355 994 364 996 q 336 986 346 992 q 313 972 325 979 q 289 958 300 965 q 224 900 254 931 q 167 833 194 869 q 111 746 135 792 q 85 644 88 700 q 76 639 81 642 q 67 633 72 636 q 65 606 64 619 q 76 582 65 593 m 599 650 q 651 683 626 668 q 701 711 675 699 q 755 716 728 725 q 797 681 782 707 q 806 653 804 668 q 808 624 807 639 q 802 573 808 599 q 786 524 796 547 q 727 413 763 464 q 647 317 692 361 q 546 229 600 267 q 481 197 519 208 q 410 206 440 185 q 379 268 381 228 q 381 306 379 288 q 389 344 383 325 q 445 488 411 419 q 529 618 479 557 q 552 640 540 631 q 575 661 564 650 q 599 650 590 656 m 447 249 q 489 258 469 250 q 528 281 508 267 q 721 504 653 368 q 738 551 732 526 q 751 599 744 575 q 755 628 756 614 q 744 657 754 643 q 726 660 735 663 q 707 653 717 658 q 683 639 696 646 q 660 625 671 632 q 595 567 625 597 q 538 500 565 536 q 482 413 506 458 q 456 311 458 367 q 447 306 451 308 q 438 300 443 303 q 435 273 435 286 q 447 249 436 260 z "},"&":{"ha":1035,"x_min":-114,"x_max":903,"o":"m 846 33 q 830 47 839 40 q 815 60 821 53 q 769 119 796 94 q 713 167 743 143 q 598 257 654 211 q 481 351 542 303 q 452 329 467 340 q 421 306 438 318 q 300 218 360 261 q 178 132 240 175 q 49 69 117 96 q -19 60 14 56 q -82 96 -53 65 q -108 138 -101 117 q -101 183 -114 158 q -42 282 -78 236 q 62 390 6 342 q 178 486 118 439 q 254 549 215 518 q 332 611 293 581 q 333 622 332 618 q 332 633 335 626 q 347 765 328 701 q 402 883 365 829 q 492 976 439 936 q 611 1038 546 1017 q 664 1050 636 1046 q 716 1043 693 1053 q 753 1015 739 1033 q 769 971 767 996 q 758 921 771 946 q 723 863 743 890 q 679 811 703 835 q 581 721 631 764 q 482 633 531 678 q 447 604 464 618 q 414 576 429 590 q 420 542 417 556 q 428 517 424 529 q 442 490 433 504 q 467 454 451 476 q 488 467 478 461 q 510 479 499 472 q 627 561 568 521 q 746 640 686 601 q 796 669 769 656 q 851 699 822 683 q 878 676 867 686 q 903 656 890 667 q 706 524 797 594 q 519 383 615 454 q 581 316 550 344 q 646 260 613 288 q 713 208 679 233 q 781 154 747 183 q 816 118 800 138 q 849 78 832 99 q 854 62 853 71 q 858 43 856 53 q 853 39 856 42 q 846 33 850 36 m 360 532 q 276 471 321 507 q 185 397 231 435 q 101 320 140 358 q 35 251 61 282 q -21 172 3 213 q -28 153 -26 164 q -36 131 -31 143 q 20 148 -14 133 q 94 185 54 163 q 179 235 135 207 q 267 295 224 264 q 350 360 310 326 q 422 425 390 393 q 392 477 407 450 q 360 532 376 504 m 404 674 q 423 682 414 679 q 439 692 432 685 q 521 763 479 728 q 603 836 563 797 q 649 885 628 858 q 690 939 671 913 q 704 962 699 950 q 708 989 710 974 q 599 962 654 990 q 501 888 544 933 q 430 785 457 842 q 404 674 403 729 z "},"'":{"ha":322,"x_min":186,"x_max":307,"o":"m 306 950 q 299 908 307 933 q 277 857 290 883 q 249 806 264 831 q 219 769 233 782 q 215 769 217 769 q 211 768 214 768 q 199 770 204 768 q 186 772 193 772 q 229 869 213 821 q 258 963 246 918 l 306 950 z "},"(":{"ha":379,"x_min":-83,"x_max":788,"o":"m 743 1063 q 763 1045 751 1056 q 788 1024 774 1035 q 769 1002 776 1011 q 754 985 761 993 q 733 990 743 988 q 711 996 722 993 q 476 843 586 929 q 268 654 365 757 q 152 522 207 589 q 57 376 97 456 q 24 308 39 343 q -1 236 10 272 q 18 101 -22 154 q 140 46 58 49 l 182 46 q 191 44 188 46 q 199 40 194 43 q 208 31 203 38 q 225 11 214 24 q 139 -3 181 -11 q 57 25 97 4 q -53 145 -22 68 q -57 310 -83 222 q 35 488 -25 406 q 288 777 150 647 q 596 1004 426 907 q 663 1040 628 1024 q 743 1063 699 1056 z "},")":{"ha":744,"x_min":-301,"x_max":569,"o":"m -257 -18 q -276 -1 -265 -11 q -301 21 -287 10 q -164 85 -233 46 q -28 172 -94 124 q 101 276 39 221 q 218 390 164 332 q 334 522 279 456 q 429 668 389 589 q 462 737 447 701 q 488 808 476 772 q 493 862 494 835 q 483 912 492 889 q 461 953 475 935 q 428 981 447 971 q 387 984 408 990 q 338 975 365 978 q 288 988 304 971 q 261 1033 272 1006 q 347 1048 306 1056 q 429 1019 389 1040 q 539 899 508 976 q 543 735 569 822 q 451 557 511 639 q 198 267 336 397 q -110 40 60 138 q -177 5 -142 21 q -257 -18 -212 -11 z "},"*":{"ha":532,"x_min":140,"x_max":536,"o":"m 233 1008 q 265 1000 251 1008 q 290 981 279 992 q 310 956 300 969 q 332 932 319 943 q 356 960 346 944 q 373 991 365 975 q 388 1023 381 1007 q 408 1053 396 1039 q 427 1039 421 1044 q 435 1026 433 1033 q 435 1007 438 1018 q 428 976 433 996 q 450 973 439 971 q 472 979 461 975 q 494 987 482 983 q 519 988 506 990 q 536 964 525 982 q 495 940 517 949 q 451 922 474 931 q 406 904 428 914 q 368 878 385 894 q 384 828 372 851 q 408 783 396 806 q 431 735 421 760 q 442 681 440 710 q 404 705 417 689 q 383 740 392 721 q 364 779 374 760 q 336 811 354 799 q 308 774 321 793 q 285 734 296 754 q 261 694 274 714 q 232 657 249 675 q 197 676 218 664 q 241 757 219 717 q 286 839 263 797 q 263 842 274 843 q 242 838 251 842 q 223 830 232 835 q 204 822 214 825 q 167 824 182 818 q 140 858 151 831 q 210 884 174 871 q 286 913 246 897 q 266 938 275 928 q 247 960 257 949 q 231 981 239 971 q 233 1008 224 990 z "},"+":{"ha":774,"x_min":26,"x_max":617,"o":"m 488 657 q 475 614 488 629 q 448 588 463 599 q 419 565 433 576 q 404 532 406 553 q 460 533 432 532 q 517 532 489 535 q 544 530 529 531 q 572 525 558 529 q 597 512 585 521 q 617 485 608 503 q 481 476 547 481 q 349 467 415 472 q 227 295 286 379 q 128 111 168 211 q 94 164 86 124 q 104 191 99 178 q 117 215 110 204 q 162 294 139 256 q 208 371 185 333 q 228 404 217 388 q 253 443 240 421 q 186 438 217 442 q 126 428 156 435 q 72 430 97 422 q 26 469 47 438 q 46 478 38 474 q 64 485 54 483 q 276 510 168 499 q 310 525 297 513 q 335 553 324 538 q 391 618 363 585 q 464 681 419 651 l 488 657 z "},",":{"ha":318,"x_min":17,"x_max":114,"o":"m 113 304 q 106 275 114 290 q 88 246 99 260 q 65 220 78 232 q 44 200 53 208 q 27 189 33 190 q 19 192 21 188 q 18 203 17 196 q 25 219 19 211 q 32 235 29 228 q 32 244 35 242 q 18 266 19 253 q 19 293 17 279 q 39 324 25 311 q 69 340 53 338 q 97 335 85 343 q 113 304 110 328 z "},"-":{"ha":826,"x_min":32,"x_max":667,"o":"m 58 382 q 45 409 51 397 q 32 431 39 421 q 101 463 57 449 q 202 488 146 478 q 322 505 258 499 q 445 513 385 511 q 558 508 506 514 q 649 492 611 503 q 656 483 651 488 q 663 472 660 479 q 665 462 665 468 q 667 447 664 456 q 590 448 628 447 q 517 447 553 449 q 440 440 478 444 q 364 431 401 436 q 288 422 325 426 q 211 411 250 418 q 135 397 172 406 q 58 382 99 389 z "},".":{"ha":389,"x_min":22,"x_max":117,"o":"m 26 301 q 36 357 22 338 q 78 380 56 383 q 115 344 101 376 q 108 310 117 326 q 85 286 99 294 q 55 280 71 278 q 26 301 39 282 z "},";":{"ha":365,"x_min":26,"x_max":221,"o":"m 122 340 q 116 311 124 326 q 98 282 108 296 q 75 256 88 268 q 54 236 63 244 q 37 225 43 226 q 28 228 31 224 q 28 240 26 232 q 35 256 29 247 q 42 271 39 264 q 42 281 44 278 q 28 302 29 289 q 29 329 26 315 q 49 360 35 347 q 78 376 63 374 q 107 372 94 379 q 122 340 119 364 m 131 490 q 140 546 126 526 q 183 569 160 572 q 219 533 206 565 q 212 499 221 515 q 189 475 203 483 q 159 469 175 467 q 131 490 143 471 z "},"<":{"ha":539,"x_min":38,"x_max":401,"o":"m 38 406 q 149 490 69 449 q 376 582 229 532 q 388 570 382 575 q 401 558 394 565 q 397 549 399 553 q 392 543 394 544 q 298 497 344 519 q 204 451 251 475 q 167 429 186 440 q 119 400 147 418 q 191 388 161 393 q 249 376 221 383 q 305 365 278 372 q 347 326 332 357 q 339 318 342 322 q 333 314 336 314 q 226 328 281 321 q 119 343 172 335 q 89 349 100 346 q 70 357 78 351 q 56 374 63 363 q 38 406 49 385 z "},"=":{"ha":733,"x_min":29,"x_max":565,"o":"m 81 524 q 69 542 75 533 q 60 560 64 551 q 67 572 64 567 q 74 578 69 576 q 136 594 104 585 q 200 607 168 603 q 349 612 275 618 q 497 588 424 606 q 545 563 526 581 q 565 510 564 546 q 446 540 506 532 q 326 548 386 549 q 204 540 265 547 q 81 524 143 532 m 503 400 q 274 403 385 411 q 49 371 163 396 q 29 401 39 385 q 48 430 36 421 q 76 443 60 439 q 272 469 174 464 q 469 454 369 475 q 497 440 488 451 q 503 400 506 428 z "},">":{"ha":607,"x_min":64,"x_max":450,"o":"m 411 404 q 288 353 367 376 q 85 306 210 329 q 75 319 81 313 q 64 333 69 326 q 70 342 68 338 q 75 347 72 346 q 175 379 125 364 q 275 410 225 394 q 315 426 294 418 q 365 449 335 435 q 315 463 346 456 q 253 478 285 471 q 194 493 222 486 q 154 506 167 500 q 100 525 126 514 q 64 568 74 536 q 73 576 69 572 q 79 579 76 579 q 144 563 104 572 q 226 543 183 553 q 309 524 269 533 q 374 506 349 514 q 407 494 390 500 q 431 482 424 488 q 446 444 450 467 q 411 404 442 422 z "},"?":{"ha":811,"x_min":15,"x_max":919,"o":"m 151 217 q 137 235 144 226 q 118 258 129 244 q 172 321 146 290 q 226 379 199 351 q 438 585 332 483 q 651 792 544 688 q 721 860 688 825 q 789 931 754 894 q 827 979 810 954 q 853 1036 844 1004 q 833 1056 846 1051 q 804 1057 819 1060 q 704 1046 754 1051 q 606 1031 654 1040 q 435 983 518 1013 q 275 906 353 953 q 207 858 239 883 q 151 796 175 832 q 117 726 128 761 q 118 656 107 692 q 146 635 129 640 q 178 626 163 631 q 208 612 194 621 q 226 579 222 603 q 114 600 161 558 q 71 662 85 628 q 64 739 57 696 q 138 878 79 819 q 214 940 174 914 q 299 989 254 967 q 443 1047 369 1022 q 593 1089 517 1071 q 693 1109 643 1100 q 793 1117 743 1118 q 842 1108 819 1114 q 881 1079 864 1101 q 892 968 919 1024 q 862 919 876 943 q 829 876 847 896 q 685 724 763 797 q 429 477 557 600 q 174 231 301 354 q 163 224 168 226 q 151 217 158 222 m 15 92 q 33 142 15 124 q 74 158 54 165 q 94 121 94 151 q 87 90 94 104 q 67 69 79 75 q 42 67 56 63 q 15 92 28 71 z "},"_":{"ha":658,"x_min":-158,"x_max":413,"o":"m 399 171 q 404 152 401 163 q 413 128 407 142 q 290 146 351 142 q 167 148 228 150 q 44 139 106 146 q -76 126 -17 132 q -87 105 -83 113 q -94 92 -92 97 q -140 104 -125 89 q -158 146 -156 119 q -135 175 -151 168 q -101 185 -118 182 q 26 205 -39 197 q 155 213 90 213 q 281 203 219 213 q 399 171 342 193 z "},"|":{"ha":571,"x_min":-94,"x_max":475,"o":"m 439 876 q 460 855 453 863 q 475 839 467 847 q 449 796 461 815 q 425 758 438 776 q 212 394 308 579 q 33 13 115 208 q -20 -124 3 -56 q -56 -265 -43 -193 q -85 -261 -75 -269 q -94 -237 -94 -253 q -93 -189 -94 -214 q -85 -142 -92 -164 q -36 0 -61 -69 q 17 139 -11 69 q 158 443 82 296 q 329 729 233 590 q 380 799 353 765 q 439 876 407 833 z "},"z":{"ha":532,"x_min":-226,"x_max":550,"o":"m 188 285 q 281 328 233 304 q 374 378 329 353 q 461 425 419 403 q 538 463 503 447 q 549 426 550 435 q 546 417 549 418 q 397 342 476 381 q 257 268 318 304 q 126 174 176 219 q 38 84 75 128 q -29 -1 1 40 q -100 -79 -60 -42 q -136 -109 -117 -94 q -185 -126 -156 -124 l -226 -90 q -224 -68 -226 -74 q -186 -4 -210 -32 q -136 47 -162 24 q -64 115 -100 82 q 13 175 -28 147 q 38 195 21 181 q 72 227 56 210 q 100 262 89 244 q 108 291 111 279 q 83 306 106 303 q 10 297 60 308 q -3 330 -6 324 q 15 347 -1 336 q 156 435 86 389 q 297 542 225 482 q 314 559 301 546 q 335 585 326 572 q 340 610 343 599 q 313 621 338 621 q 222 598 264 617 q 144 553 179 579 q 85 497 110 526 q 47 440 60 467 q 23 411 33 414 q -7 433 13 408 q -14 462 -17 447 q -2 490 -11 476 q 19 517 7 504 q 42 539 31 529 q 106 589 72 565 q 175 630 139 613 q 250 657 211 647 q 331 665 289 667 q 342 665 336 665 q 353 663 347 665 q 394 629 382 656 q 392 578 407 603 q 336 508 371 540 q 263 448 301 476 q 183 394 224 419 q 111 344 143 368 q 149 348 129 349 q 183 340 169 347 q 200 319 197 333 q 188 285 203 306 z "},"y":{"ha":518,"x_min":-243,"x_max":533,"o":"m 207 335 q 186 309 200 326 q 167 283 172 292 q 262 328 214 303 q 356 377 310 353 q 443 424 401 401 q 521 463 485 447 q 533 426 533 435 q 529 417 532 418 q 381 342 460 381 q 240 268 301 304 q 109 174 160 219 q 22 84 58 128 q -46 -1 -15 40 q -117 -79 -76 -42 q -153 -109 -133 -94 q -201 -126 -172 -124 l -243 -90 q -240 -68 -243 -74 q -203 -4 -226 -32 q -153 47 -179 24 q -81 115 -117 82 q -4 175 -44 147 q 87 263 49 211 q 168 374 125 315 q 93 347 129 363 q 21 319 57 332 q -19 342 -4 332 q -39 365 -33 353 q -41 392 -44 376 q -28 429 -37 407 q 27 517 -7 474 q 100 589 61 560 l 131 560 q 60 475 90 519 q 10 372 31 431 q 107 408 64 383 q 192 458 150 432 q 265 513 229 483 q 342 575 301 543 q 353 565 346 571 q 374 550 361 558 q 328 497 350 522 q 288 446 307 471 q 249 394 268 422 q 207 335 231 367 z "},"x":{"ha":600,"x_min":-83,"x_max":563,"o":"m 188 389 q 133 365 160 379 q 78 338 106 351 q 22 313 50 325 q -39 293 -7 300 q -61 316 -50 304 q -83 340 -72 328 q -4 477 -51 418 q 92 596 43 536 q 110 569 100 585 q 131 534 119 553 q 158 496 143 515 q 190 461 172 476 q 353 525 275 486 q 511 597 432 564 q 538 596 526 604 q 563 564 550 588 q 481 524 522 542 q 400 490 440 507 q 319 453 360 472 q 239 411 278 435 q 281 385 257 396 q 328 367 306 375 q 367 351 350 358 q 390 338 385 344 q 333 323 379 306 q 188 389 286 340 m 136 431 q 105 466 118 450 q 82 506 92 482 q 38 442 61 471 q 0 369 15 414 q 70 396 39 381 q 136 431 101 411 z "},"w":{"ha":856,"x_min":-86,"x_max":871,"o":"m 871 425 q 733 372 803 394 q 592 336 663 350 q 528 337 558 329 q 471 361 499 344 q 417 333 443 347 q 364 308 392 319 q 312 288 339 297 q 258 276 285 279 q 168 290 199 268 q 117 375 138 313 q 88 359 101 368 q 58 342 74 350 q 33 326 46 335 q 4 313 19 318 q -28 302 -17 303 q -51 313 -39 301 q -76 344 -67 328 q -74 381 -86 360 q -44 422 -64 397 q -1 475 -25 447 q 49 530 24 503 q 97 576 74 557 q 115 564 107 569 q 131 553 122 558 q 57 469 90 513 q -8 368 24 426 q 120 439 65 399 q 232 519 175 479 q 246 508 239 513 q 263 497 253 504 q 253 483 257 490 q 246 472 250 476 q 213 434 225 449 q 194 407 201 419 q 183 380 188 394 q 174 342 179 365 q 235 326 203 324 q 299 340 267 328 q 365 372 332 353 q 433 410 399 392 q 458 494 440 453 q 502 569 476 535 q 561 633 528 604 q 631 679 594 661 q 660 693 649 689 q 683 694 672 697 q 703 678 693 690 q 725 644 713 665 q 689 572 711 606 q 638 509 667 539 q 578 451 610 479 q 514 392 547 422 q 605 393 560 388 q 695 410 650 399 q 783 438 740 422 q 864 469 825 454 l 871 425 m 513 474 q 606 549 568 506 q 657 639 644 593 q 574 569 611 607 q 513 474 536 531 z "},"W":{"ha":1568,"x_min":-122,"x_max":1550,"o":"m 478 349 q 451 327 464 338 q 425 307 438 317 q 301 217 361 263 q 175 129 240 171 q 100 91 139 107 q 21 63 61 75 q -37 61 -10 54 q -83 85 -64 68 q -112 129 -103 103 q -118 186 -122 156 q -102 242 -114 214 q -78 296 -90 271 q 6 429 -42 367 q 104 551 53 492 q 367 821 228 696 q 665 1051 506 946 q 706 1078 686 1065 q 749 1103 726 1092 q 788 1117 767 1114 q 838 1114 810 1121 q 855 1094 844 1106 q 874 1074 865 1082 q 867 1015 881 1038 q 839 972 854 992 q 758 881 799 926 q 671 794 717 835 q 576 713 625 751 q 478 636 526 674 q 451 617 464 625 q 422 603 438 608 q 390 600 404 596 q 364 624 375 604 q 599 808 488 711 q 801 1036 710 906 q 641 943 718 1000 q 493 828 564 886 q 275 627 378 733 q 83 401 172 521 q 29 320 56 361 q -22 238 3 279 q -49 188 -37 214 q -58 132 -60 163 q -17 122 -37 118 q 22 133 3 125 q 103 174 63 153 q 182 218 144 194 q 383 363 289 285 q 569 524 476 442 q 732 670 653 599 q 892 814 811 742 q 922 839 907 826 q 956 867 936 851 q 974 849 965 857 q 997 829 983 840 q 967 797 981 811 q 940 771 954 783 q 774 597 853 688 q 624 407 694 506 q 564 315 592 363 q 508 218 536 267 q 492 181 497 196 q 485 151 486 165 q 488 120 485 136 q 494 81 490 104 q 547 57 518 60 q 607 60 575 54 q 788 124 701 76 q 1368 639 1138 315 q 1428 741 1403 688 q 1469 853 1454 794 q 1480 910 1479 888 q 1472 969 1481 933 q 1440 963 1454 969 q 1410 949 1425 957 q 1381 931 1396 940 q 1349 917 1365 922 q 1331 933 1340 924 q 1310 953 1321 942 q 1361 995 1335 979 q 1417 1022 1388 1011 q 1493 1008 1461 1043 q 1539 944 1528 981 q 1544 864 1550 907 q 1522 766 1538 814 q 1482 672 1506 718 q 1405 547 1447 606 q 1314 435 1363 489 q 901 93 1132 232 q 806 42 854 65 q 703 7 757 19 q 593 -6 649 -6 q 508 15 544 -4 q 451 66 472 35 q 425 138 431 97 q 435 224 419 179 q 452 265 442 246 q 472 306 463 285 q 485 340 479 321 q 481 344 483 343 q 478 349 479 346 z "},"X":{"ha":1258,"x_min":-140,"x_max":1383,"o":"m 885 788 q 948 827 919 808 q 1004 861 976 846 q 1083 907 1044 885 q 1163 950 1122 929 q 1200 969 1181 961 q 1239 983 1219 976 q 1327 990 1290 1003 q 1383 911 1364 978 q 1325 832 1375 864 q 1303 863 1314 847 q 1278 897 1292 878 q 1090 808 1181 858 q 907 700 999 758 q 929 559 918 628 q 951 422 940 490 q 976 235 965 328 q 1000 49 988 142 q 1008 15 1003 31 q 1018 -19 1014 0 q 1010 -26 1015 -22 q 999 -33 1004 -29 q 956 -11 967 -29 q 942 33 946 7 q 902 317 922 176 q 860 600 882 457 q 854 627 858 614 q 846 658 850 640 q 809 634 825 644 q 778 611 793 624 q 427 335 592 483 q 107 25 263 188 q 58 -25 82 0 q 8 -74 35 -50 q -26 -101 -8 -89 q -61 -124 -44 -112 q -106 -98 -89 -110 q -131 -72 -122 -86 q -140 -40 -139 -58 q -135 4 -140 -22 q -85 169 -118 90 q 515 938 121 632 q 574 976 543 958 q 635 1010 604 994 q 713 1023 675 1031 q 779 983 750 1015 q 817 933 800 960 q 849 879 833 906 q 867 836 860 858 q 885 788 874 814 m 753 956 q 699 962 728 968 q 643 941 671 956 q 591 907 615 926 q 549 874 567 888 q 239 558 375 731 q 4 183 103 386 q -34 94 -18 140 q -68 4 -50 49 q -71 -17 -71 -6 q -72 -47 -71 -28 q 42 63 -8 6 q 146 172 92 121 q 254 276 201 224 q 364 379 307 329 q 477 477 419 429 q 594 572 535 525 q 712 663 651 619 q 831 753 772 707 q 801 860 817 808 q 753 956 786 911 z "},"Y":{"ha":1032,"x_min":-142,"x_max":1111,"o":"m 1021 1007 q 881 903 949 958 q 746 794 813 849 q 553 627 649 711 q 360 461 457 543 q 269 390 317 424 q 175 324 222 357 q 118 298 149 306 q 54 306 88 290 q 8 370 18 333 q 7 453 -3 407 q 72 644 31 553 q 161 826 113 736 q 205 901 182 865 q 253 975 228 938 q 278 1003 264 990 q 308 1033 293 1017 q 327 1014 319 1022 q 342 997 335 1006 q 315 967 328 981 q 292 939 301 954 q 160 701 218 822 q 65 444 101 579 q 57 404 60 425 q 50 356 54 383 q 81 360 68 360 q 103 365 94 361 q 182 412 143 389 q 257 463 221 435 q 381 565 319 513 q 503 668 442 617 q 710 840 607 754 q 918 1010 813 925 q 985 1060 950 1036 q 1069 1094 1021 1083 q 1089 1067 1078 1082 q 1111 1033 1100 1051 q 1090 984 1100 1008 q 1068 936 1081 960 q 857 583 964 757 q 629 242 750 410 q 524 116 581 175 q 399 7 468 57 q 275 -52 338 -36 q 150 -62 213 -68 q 28 -34 88 -57 q -85 25 -32 -11 q -120 56 -104 39 q -142 99 -136 74 q -118 101 -126 110 q -100 86 -110 93 q 44 19 -31 40 q 206 10 119 -1 q 307 42 260 17 q 396 103 354 68 q 517 215 463 153 q 617 346 571 276 q 766 572 693 460 q 913 801 839 685 q 974 899 944 850 q 1032 996 1004 947 l 1021 1007 l 1021 1007 z "},"Z":{"ha":1307,"x_min":-100,"x_max":1233,"o":"m 829 544 q 919 540 876 542 q 1001 535 961 538 q 1042 524 1024 532 q 1067 488 1060 517 q 1047 487 1056 488 q 1031 488 1038 486 l 829 488 q 715 466 767 488 q 611 411 663 444 q 442 301 528 353 q 269 194 357 249 q 249 180 258 188 q 232 160 240 172 q 250 162 240 161 q 267 165 260 163 q 560 231 413 206 q 857 263 707 256 q 962 261 910 265 q 1067 253 1014 257 q 1105 241 1086 250 q 1135 210 1124 232 q 1138 179 1142 192 q 1111 157 1133 167 q 1092 174 1101 164 q 1068 199 1083 185 q 931 201 1001 201 q 790 194 861 201 q 381 124 581 172 q -14 1 182 75 q -43 -7 -28 -4 q -74 -15 -58 -10 q -88 10 -82 0 q -100 31 -94 21 q -94 43 -96 38 q -89 51 -93 49 q -40 85 -64 68 q 10 118 -15 103 q 245 265 128 192 q 482 414 363 339 q 513 435 497 424 q 553 463 528 446 q 462 452 503 456 q 381 446 421 449 q 374 461 378 453 q 368 476 371 469 q 404 496 385 492 q 440 503 424 500 q 520 514 481 510 q 601 521 560 518 q 652 529 628 524 q 699 550 676 535 q 867 663 782 608 q 1035 776 951 718 q 1078 811 1057 793 q 1119 849 1099 829 q 1160 906 1157 885 q 1144 940 1164 928 q 1090 955 1125 951 q 1017 958 1056 958 q 942 954 979 957 q 885 950 906 951 q 599 905 740 935 q 322 825 458 875 q 238 792 279 810 q 157 751 196 775 q 94 703 118 728 q 67 651 71 678 q 79 594 63 624 q 138 529 96 564 q 160 486 156 517 q 144 490 153 489 q 131 496 136 490 q 85 543 108 519 q 44 594 63 567 q 22 676 17 636 q 60 753 26 715 q 193 843 114 813 q 326 892 260 868 q 463 935 393 915 q 689 987 575 967 q 919 1019 803 1007 q 1024 1026 972 1025 q 1129 1011 1076 1026 q 1145 1007 1138 1010 q 1161 1001 1153 1004 q 1219 938 1206 981 q 1207 854 1233 896 q 1168 806 1189 831 q 1122 763 1147 782 q 1004 672 1064 715 q 882 583 944 629 q 858 565 871 574 q 829 544 846 556 z "},"\\":{"ha":440,"x_min":26,"x_max":250,"o":"m 26 1061 q 60 1062 50 1071 q 76 1040 71 1053 q 95 987 86 1013 q 111 935 104 961 q 153 708 132 821 q 192 483 174 596 q 222 252 208 367 q 250 19 235 138 l 250 -17 q 234 -19 240 -19 q 221 -21 228 -19 q 201 25 206 1 q 193 72 197 49 q 138 438 165 256 q 82 801 111 619 q 58 913 72 858 q 33 1026 44 968 q 30 1042 31 1033 q 26 1061 29 1050 z "},"v":{"ha":592,"x_min":-40,"x_max":613,"o":"m 613 429 q 486 370 547 401 q 360 315 425 339 q 256 301 304 294 q 172 368 207 308 q 94 319 131 344 q 8 283 58 293 q -15 302 -3 293 q -39 321 -28 311 q -33 381 -40 346 q -12 454 -26 415 q 20 533 1 493 q 61 610 39 574 q 88 603 76 610 q 104 586 99 596 q 110 565 110 576 q 107 546 111 554 q 61 446 86 490 q 28 351 36 401 q 156 423 97 372 q 261 531 214 474 q 344 638 308 588 q 406 706 381 688 l 451 651 q 362 556 403 603 q 272 460 321 508 q 235 403 243 431 q 251 353 225 369 q 333 361 276 338 q 453 411 393 383 q 593 468 514 439 l 613 429 z "},"u":{"ha":631,"x_min":-81,"x_max":647,"o":"m 647 424 q 526 368 589 394 q 399 326 463 342 q 344 317 367 318 q 306 326 322 317 q 277 353 290 335 q 250 404 264 372 q 199 374 224 389 q 149 343 175 358 q 97 317 124 331 q 43 293 71 303 q -28 286 3 278 q -81 347 -60 294 q -1 482 -56 424 q 124 589 53 540 q 140 576 132 582 q 163 560 149 569 q 107 510 133 535 q 58 460 81 486 q 15 406 35 435 q -19 339 -4 376 q 53 357 15 343 q 137 396 92 371 q 237 458 182 421 q 360 544 292 494 q 379 535 375 542 q 393 517 383 528 l 344 453 q 322 417 332 435 q 314 375 311 400 q 385 376 343 367 q 471 403 426 386 q 558 438 515 419 q 632 469 601 457 l 647 424 z "},"t":{"ha":485,"x_min":-111,"x_max":568,"o":"m 503 422 q 397 375 454 401 q 281 324 340 349 q 163 281 221 300 q 57 254 106 261 q 2 257 26 249 q -37 283 -22 265 q -58 326 -53 300 q -53 381 -62 351 q -42 408 -49 394 q -24 441 -35 422 q 3 487 -12 460 q 43 554 19 514 q -21 541 7 547 q -78 528 -49 535 q -100 554 -87 538 q -92 575 -111 567 q -39 590 -72 583 q 31 601 -6 596 q 92 615 68 607 q 253 783 188 717 q 367 889 318 849 q 453 950 415 929 q 529 982 490 971 q 563 944 558 958 q 549 907 568 931 q 511 862 531 883 q 468 821 492 840 q 348 720 406 767 q 236 625 290 674 q 296 626 263 625 q 358 624 329 628 q 405 612 386 621 q 422 582 424 603 q 306 579 364 579 q 185 571 247 579 q 138 559 158 568 q 101 529 117 550 q 35 423 68 476 q -14 308 1 369 q 6 304 -4 306 q 31 305 17 303 q 68 313 46 307 q 124 331 90 319 q 308 395 211 361 q 489 465 406 429 l 503 422 m 489 904 q 428 863 468 896 q 345 788 388 829 q 267 708 303 747 q 217 651 231 669 q 301 726 254 686 q 390 802 349 767 q 460 865 432 838 q 489 904 489 893 z "},"s":{"ha":532,"x_min":-265,"x_max":549,"o":"m 299 561 q 207 524 249 546 q 125 475 165 503 q 169 471 147 472 q 211 467 190 469 q 251 458 232 464 q 289 438 271 451 q 409 467 346 450 q 524 479 472 483 q 544 467 542 476 q 549 435 546 458 q 492 433 518 436 q 440 424 465 429 q 390 410 415 418 q 338 397 365 403 q 288 381 313 390 q 240 361 264 371 q 106 308 172 335 q -32 254 39 281 q -116 222 -74 238 q -201 192 -158 207 q -238 188 -222 185 q -265 215 -254 192 q -248 238 -261 233 q -219 250 -235 243 q -28 324 -124 286 q 163 399 67 363 q 180 406 171 401 q 208 419 189 411 q 133 424 167 426 q 68 417 100 422 q 26 416 44 411 q -6 440 7 421 q -12 467 -17 454 q 8 485 -7 479 q 110 537 60 511 q 213 586 161 563 q 256 594 233 596 q 299 561 278 593 z "},"r":{"ha":519,"x_min":-125,"x_max":544,"o":"m 274 433 q 398 449 338 439 q 519 465 458 458 q 535 457 532 467 q 544 432 538 447 q 488 418 522 426 q 416 402 453 410 q 347 388 379 394 q 294 381 314 382 q 240 396 263 378 q 217 443 217 414 q 219 483 218 461 q 222 531 219 504 q 83 456 146 507 q -28 347 21 404 q -56 313 -42 329 q -86 276 -69 296 q -107 290 -97 283 q -125 301 -117 296 q -48 419 -110 349 q 107 564 14 489 q 142 565 125 565 q 174 569 158 565 q 242 566 213 583 q 278 513 272 549 q 277 473 281 493 q 274 433 274 453 z "},"q":{"ha":513,"x_min":-274,"x_max":526,"o":"m 526 429 q 417 378 475 406 q 300 320 358 350 q 185 257 242 290 q 82 189 129 224 q 126 188 104 189 q 168 181 149 186 q 203 165 188 175 q 229 133 218 154 l 196 133 q 133 136 164 135 q 71 135 101 138 q -12 100 22 135 q -128 -5 -71 46 q -236 -111 -186 -56 q -274 -78 -257 -94 q -253 -35 -267 -54 q -226 4 -240 -15 q -196 43 -211 24 q -168 86 -181 63 l -256 71 q -262 77 -258 71 q -269 91 -267 83 q -273 105 -272 99 q -268 111 -274 111 q -205 135 -236 124 q -143 153 -174 146 q -101 169 -119 160 q -67 196 -82 178 q -1 269 -35 232 q 71 346 33 306 q 60 344 67 346 q 44 338 53 342 q 29 332 36 335 q 19 329 22 329 q -34 358 -15 332 q -35 426 -53 383 q 4 488 -21 458 q 62 540 29 517 q 131 579 94 564 q 201 597 167 594 q 243 597 228 600 q 265 584 258 593 q 272 560 272 575 q 268 524 272 544 q 217 550 246 550 q 158 535 188 550 q 101 498 128 521 q 56 456 74 475 q 32 427 42 440 q 21 406 22 414 q 29 395 19 397 q 63 400 39 393 q 169 453 117 419 q 265 524 221 488 q 338 582 290 563 l 371 543 q 206 394 281 472 q 61 229 131 317 q 286 357 169 297 q 518 465 403 417 l 526 429 z "},"Q":{"ha":1019,"x_min":-58,"x_max":1253,"o":"m 181 93 q 135 94 157 93 q 92 93 113 94 q 36 103 64 90 q -13 140 8 117 q -47 192 -35 163 q -54 253 -58 221 q -26 361 -47 310 q 25 463 -7 415 q 92 556 57 511 q 575 963 288 810 q 601 976 592 971 q 620 983 611 981 q 640 987 629 986 q 668 988 650 988 q 686 963 681 975 q 691 947 690 956 q 694 924 692 938 q 733 953 714 939 q 771 981 751 967 q 908 1074 838 1031 q 1057 1149 979 1117 q 1124 1169 1092 1161 q 1192 1169 1157 1176 q 1244 1110 1235 1136 q 1235 1039 1253 1083 q 1176 921 1213 978 q 1056 756 1122 833 q 917 603 989 678 q 738 438 829 515 q 546 289 646 360 q 395 192 471 236 q 236 117 319 149 q 233 39 228 71 q 261 -12 239 7 q 322 -37 283 -31 q 421 -43 361 -44 q 429 -56 425 -49 q 440 -71 433 -62 q 403 -88 422 -86 q 365 -90 383 -90 q 249 -44 299 -93 q 181 93 199 6 m 1196 1122 q 1178 1124 1185 1122 q 1165 1122 1171 1125 q 1085 1094 1125 1107 q 1011 1063 1046 1082 q 634 788 801 944 q 336 429 467 632 q 285 333 307 382 q 249 232 264 285 q 246 215 247 225 q 243 190 244 206 q 341 234 296 210 q 426 286 386 258 q 728 511 586 390 q 994 775 869 632 q 1089 892 1044 833 q 1168 1019 1133 951 q 1192 1065 1181 1042 q 1196 1122 1203 1089 m 625 919 q 606 911 617 918 q 332 716 457 826 q 108 464 207 606 q 58 381 81 424 q 14 294 35 339 q -5 235 0 267 q 10 167 -10 203 q 96 149 53 147 q 182 171 139 151 q 224 342 193 264 q 301 496 256 421 q 444 681 367 594 q 608 846 521 767 q 634 869 619 857 q 668 896 649 881 q 651 913 657 907 q 643 919 644 918 l 625 919 z "},"R":{"ha":1235,"x_min":-67,"x_max":1424,"o":"m 297 413 q 433 391 368 401 q 565 369 499 381 q 774 334 669 351 q 983 299 879 317 q 1005 294 994 296 q 1024 286 1015 292 q 1040 270 1033 281 q 1047 243 1046 260 q 846 267 946 253 q 646 298 746 282 q 446 330 546 314 q 244 358 346 346 q 111 193 176 275 q -24 25 46 111 q -45 46 -35 36 q -67 67 -56 56 q 38 215 -14 142 q 147 364 90 288 q 92 376 117 371 q 43 383 68 381 q -1 401 15 386 q -21 451 -18 415 q 56 484 17 471 q 135 509 94 497 q 217 532 176 521 q 297 557 257 543 q 497 780 397 669 q 697 1003 597 890 q 621 994 664 1004 q 535 965 578 983 q 452 921 492 946 q 388 869 413 896 q 390 852 389 861 q 393 832 390 843 q 384 831 389 832 q 379 831 379 829 q 347 887 347 864 q 379 936 347 910 q 414 963 394 951 q 453 985 433 974 q 623 1049 536 1028 q 801 1083 710 1071 q 953 1091 878 1092 q 1106 1083 1029 1090 q 1207 1067 1158 1076 q 1303 1040 1256 1057 q 1344 1020 1324 1031 q 1382 994 1365 1010 q 1423 920 1422 963 q 1383 846 1424 878 q 1315 799 1351 819 q 1240 763 1279 778 q 1085 710 1164 735 q 928 663 1007 685 q 690 599 808 629 q 451 536 572 568 q 399 519 418 526 q 365 501 379 513 q 335 469 350 489 q 297 413 321 449 m 457 618 q 469 608 461 614 q 599 642 535 626 q 729 678 664 658 q 946 738 838 707 q 1163 803 1054 769 q 1218 824 1183 810 q 1287 857 1253 838 q 1347 899 1321 876 q 1375 944 1372 921 q 1244 1006 1315 985 q 1100 1035 1174 1028 q 953 1038 1026 1042 q 815 1024 879 1033 q 636 822 725 922 q 457 618 547 721 m 131 428 l 197 428 q 210 444 204 435 q 226 469 215 453 q 174 454 196 460 q 131 442 151 449 l 131 428 z "},"S":{"ha":1289,"x_min":-207,"x_max":1336,"o":"m -207 54 q -178 68 -192 61 q -153 81 -165 75 q -112 68 -132 69 q -73 69 -93 67 q -33 76 -53 72 q 6 83 -14 81 q 235 117 118 100 q 465 153 351 133 q 685 199 578 174 q 889 261 793 225 q 949 284 914 271 q 1006 313 983 297 q 1027 347 1029 329 q 975 382 1025 364 q 810 427 894 411 q 638 453 725 443 q 465 470 551 463 q 296 489 379 478 q 228 502 261 494 q 163 521 196 510 q 131 533 147 526 q 100 550 115 540 q 46 638 53 586 q 79 732 39 689 q 140 790 107 764 q 207 836 172 815 q 381 924 290 889 q 568 988 472 960 q 832 1048 699 1028 q 1100 1075 965 1068 q 1174 1072 1138 1076 q 1247 1064 1211 1067 q 1271 1056 1258 1061 q 1293 1044 1283 1051 q 1331 983 1325 1021 q 1311 914 1336 946 q 1294 894 1304 903 q 1274 879 1285 886 q 1098 778 1189 819 q 904 726 1007 738 q 859 726 881 724 q 825 763 838 728 q 847 769 836 765 q 869 775 858 774 q 1067 828 974 786 q 1243 933 1160 871 q 1267 952 1256 942 q 1283 973 1279 963 q 1281 992 1288 983 q 1251 1004 1275 1000 q 1110 1015 1181 1019 q 971 1003 1040 1010 q 706 956 836 986 q 449 878 576 926 q 313 817 379 850 q 186 740 246 785 q 130 693 156 718 q 90 628 104 668 q 145 590 108 604 q 224 568 182 576 q 306 556 265 560 q 371 550 346 553 q 647 520 510 533 q 921 475 783 507 q 983 453 951 464 q 1039 427 1014 443 q 1081 387 1064 411 q 1101 325 1099 363 q 1083 278 1099 297 q 1044 247 1067 258 q 917 185 986 213 q 713 124 815 147 q 507 81 611 100 q 278 43 393 61 q 47 7 164 25 q -42 -2 3 1 q -135 -8 -87 -6 q -161 -8 -151 -8 q -178 -1 -171 -7 q -191 19 -185 6 q -207 54 -197 32 z "},"T":{"ha":832,"x_min":-51,"x_max":1582,"o":"m 650 839 q 626 878 644 864 q 583 900 607 892 q 532 911 558 908 q 488 917 506 914 q 287 915 386 924 q 88 882 188 906 q 40 871 64 875 q -8 860 17 867 q -24 878 -18 869 q -40 899 -31 888 q -4 921 -22 915 q 32 931 14 926 q 261 981 147 956 q 489 1026 375 1006 q 682 1057 585 1044 q 875 1082 779 1069 q 1145 1107 1010 1101 q 1418 1110 1281 1113 q 1469 1105 1443 1108 q 1521 1096 1494 1101 q 1563 1074 1549 1092 q 1582 1029 1578 1057 q 1577 1020 1582 1025 q 1568 1008 1572 1015 q 1482 1039 1528 1036 q 1389 1040 1436 1042 q 1263 1035 1331 1038 q 1131 1030 1196 1033 q 1011 1021 1067 1026 q 919 1007 956 1015 q 813 898 864 949 q 708 789 761 847 q 697 775 701 783 q 690 758 693 767 q 621 599 668 671 q 519 460 574 526 q 438 364 479 411 q 351 272 396 317 q 206 132 279 201 q 58 -8 132 63 q 31 -31 44 -19 q 1 -53 17 -42 q -24 -31 -12 -42 q -51 -6 -36 -19 q -28 35 -39 15 q -4 72 -18 54 q 69 169 32 121 q 147 264 107 217 q 384 533 265 399 q 622 803 503 668 q 636 822 629 813 q 650 839 643 832 m 532 960 q 688 874 633 932 q 804 990 742 925 q 747 991 783 993 q 669 984 710 989 q 592 972 629 979 q 532 960 554 965 m 238 249 q 326 324 275 274 q 427 432 378 375 q 515 543 476 489 q 568 631 554 597 q 399 444 481 539 q 238 249 317 349 z "},"U":{"ha":994,"x_min":-96,"x_max":1264,"o":"m 224 446 q 212 458 217 453 q 203 469 207 463 q 206 479 206 475 q 213 488 207 483 q 319 594 265 542 q 425 703 374 647 q 526 810 478 756 q 625 917 575 864 q 636 933 632 924 q 643 956 640 942 q 628 945 636 950 q 614 933 621 940 q 321 651 460 799 q 67 333 182 504 q 22 265 43 300 q -19 193 0 229 q -28 176 -25 182 q -32 163 -31 169 q -33 147 -33 156 q -33 122 -33 138 q 17 137 -7 125 q 61 164 40 149 q 206 268 135 217 q 347 378 276 319 q 586 580 469 478 q 824 782 703 682 q 1017 944 919 865 q 1211 1104 1114 1024 q 1220 1110 1215 1107 q 1233 1117 1225 1113 q 1249 1097 1242 1107 q 1264 1076 1256 1088 q 1168 970 1215 1022 q 1075 869 1121 918 q 781 522 919 701 q 526 146 643 342 q 493 85 510 115 q 461 22 476 54 q 448 -3 454 10 q 439 -31 442 -17 q 439 -59 436 -44 q 456 -90 442 -74 q 413 -78 425 -92 q 392 -54 400 -65 q 388 -6 382 -28 q 403 38 394 17 q 444 125 422 82 q 489 210 465 168 q 804 667 626 451 q 817 684 811 675 q 826 707 824 693 q 807 693 817 700 q 788 678 797 686 q 540 467 663 572 q 292 256 418 361 q 200 185 247 218 q 104 119 153 153 q 59 94 83 104 q 8 72 35 83 q -32 69 -12 65 q -66 85 -51 74 q -88 114 -81 96 q -92 154 -96 132 q -58 249 -83 206 q -16 322 -39 286 q 31 393 7 358 q 246 660 131 536 q 489 901 361 783 q 576 976 531 940 q 667 1049 622 1013 q 701 1073 683 1063 q 736 1093 719 1083 q 769 1076 760 1089 q 786 1042 779 1063 q 768 1011 776 1028 q 746 979 760 994 q 509 711 633 838 q 251 464 385 585 q 240 453 246 457 q 224 446 233 450 z "},"V":{"ha":913,"x_min":-103,"x_max":1249,"o":"m 528 1025 q 546 1007 536 1015 q 564 992 556 999 q 560 979 561 985 q 557 974 558 974 q 528 964 539 974 q 507 940 517 954 q 469 890 488 915 q 433 839 451 865 q 208 499 317 669 q 6 143 100 328 q -12 106 -3 125 q -32 61 -21 86 q 15 81 -3 68 q 49 107 32 94 q 201 229 125 169 q 351 353 278 289 q 775 717 565 535 q 1197 1083 985 899 q 1206 1090 1200 1086 q 1219 1097 1213 1093 l 1249 1068 q 1226 1027 1242 1040 q 1196 999 1211 1014 q 896 738 1044 868 q 596 478 747 608 q 366 284 481 379 q 135 93 251 189 q 33 17 86 53 q -2 -3 17 6 q -42 -25 -21 -12 q -69 0 -57 -11 q -92 21 -82 11 q -94 78 -103 53 q -72 126 -85 103 q -15 241 -43 183 q 46 354 14 299 q 225 642 132 501 q 422 917 318 782 q 467 975 444 946 q 528 1025 490 1004 z "},"รท":{"ha":835,"x_min":31,"x_max":632,"o":"m 46 406 q 38 426 42 417 q 31 449 35 436 q 51 463 42 456 q 72 474 61 469 q 128 490 100 482 q 185 503 157 499 q 369 522 278 514 q 553 511 460 531 q 606 494 579 504 q 625 476 618 488 q 629 444 632 464 q 483 465 554 464 q 336 458 411 465 q 192 440 264 451 q 46 406 121 429 m 251 301 q 233 313 243 303 q 222 336 224 324 q 230 358 219 349 q 274 368 240 368 q 309 350 303 361 q 308 328 315 339 q 285 309 301 317 q 251 301 268 301 m 389 633 q 362 612 378 619 q 331 604 346 604 q 305 613 317 604 q 289 639 293 621 q 315 656 300 649 q 345 664 331 663 q 372 658 360 665 q 389 633 383 651 z "},"ร":{"ha":672,"x_min":18,"x_max":589,"o":"m 182 474 q 135 533 158 504 q 89 593 113 563 q 125 603 110 608 q 151 586 140 599 q 183 547 167 567 q 219 504 200 526 q 381 624 300 567 q 560 717 463 681 q 572 699 565 707 q 589 679 578 690 q 420 575 501 629 q 264 449 339 521 q 357 351 311 399 q 450 257 403 304 q 415 249 428 242 q 389 267 401 256 q 326 328 357 299 q 263 389 294 357 q 248 402 256 396 q 232 418 240 408 q 183 382 206 401 q 140 341 161 363 q 97 299 118 319 q 50 260 75 278 q 18 289 38 274 q 53 342 33 318 q 95 387 74 365 q 139 429 117 408 q 182 474 161 450 z "},"p":{"ha":660,"x_min":-321,"x_max":686,"o":"m -18 306 q -88 226 -54 263 q -153 153 -122 189 q -213 80 -185 117 q -272 3 -242 43 q -299 22 -287 14 q -321 39 -310 31 q -312 64 -317 53 q -301 85 -308 75 q -133 320 -221 206 q 58 536 -46 435 q 92 566 74 551 q 128 596 110 581 q 153 609 139 606 q 186 604 167 613 q 192 585 189 597 q 199 557 194 572 q 150 541 174 556 q 106 506 126 526 q 69 463 86 485 q 40 422 53 440 q 106 463 71 439 q 178 512 142 488 q 250 557 214 536 q 319 589 286 578 q 429 565 378 610 q 444 539 440 554 q 445 507 447 524 q 436 474 443 490 q 419 444 429 458 q 528 455 476 451 q 638 465 579 458 q 669 462 654 468 q 686 424 683 456 q 615 417 654 421 q 533 408 575 413 q 449 397 490 403 q 374 385 408 392 q 330 371 351 379 q 289 353 308 363 q 64 282 182 303 q 22 283 42 279 q -18 306 1 286 m 56 349 q 156 374 106 361 q 253 408 207 388 q 337 458 299 428 q 400 536 375 488 q 250 494 336 543 q 56 349 164 444 z "},"o":{"ha":531,"x_min":-81,"x_max":553,"o":"m 300 449 q 348 451 318 449 q 410 455 378 453 q 471 459 442 457 q 518 461 500 461 q 534 460 529 461 q 542 456 539 460 q 547 446 544 453 q 553 426 549 439 q 406 409 485 417 q 261 394 326 401 q 226 365 242 379 q 193 340 210 351 q 71 275 139 296 q -24 288 24 261 q -71 347 -61 313 q -51 417 -81 381 q -26 446 -39 432 q 0 472 -14 460 q 88 539 40 511 q 192 582 135 567 q 240 586 215 589 q 287 570 268 583 q 314 538 306 557 q 319 496 322 519 q 300 449 315 472 m 265 542 q 171 521 206 536 q 117 476 136 506 q 102 435 96 443 q 129 429 108 426 q 178 440 150 432 q 225 447 206 447 q 258 488 244 469 q 265 542 271 506 m 25 418 q -6 376 7 397 q -10 322 -19 354 q 65 329 31 319 q 125 367 99 339 q 62 380 83 365 q 25 418 40 394 z "},"n":{"ha":646,"x_min":-112,"x_max":664,"o":"m 664 428 q 656 423 660 425 q 647 418 651 421 q 601 397 624 406 q 489 352 546 374 q 371 322 432 331 q 340 319 356 319 q 308 324 324 319 q 253 361 271 335 q 243 426 236 388 q 248 459 244 443 q 256 497 251 475 q 109 435 176 476 q -21 343 42 393 l -74 304 l -112 333 q -72 394 -97 369 q -25 444 -47 418 q 15 498 -6 471 q 58 556 35 525 q 74 545 68 550 q 88 536 81 540 q 83 510 86 524 q 78 479 81 496 q 163 517 122 499 q 243 550 204 535 q 282 531 268 539 q 302 513 296 522 q 309 489 308 503 q 306 454 310 475 q 297 410 301 432 q 307 371 293 389 q 481 409 397 382 q 651 471 564 436 l 664 428 z "},"m":{"ha":932,"x_min":-147,"x_max":950,"o":"m 950 422 q 811 359 881 388 q 667 310 742 331 q 514 343 582 289 q 479 454 460 385 l 501 525 q 423 481 460 506 q 351 429 386 456 q 279 378 315 403 q 203 335 243 354 q 179 355 192 346 q 150 376 167 364 q 179 441 165 410 q 207 504 193 472 q 164 489 182 496 q 117 460 146 482 q 37 395 88 438 q -106 274 -14 353 q -117 279 -112 276 q -129 286 -122 282 q -139 296 -136 290 q -147 306 -142 301 q -126 338 -146 313 q -77 397 -107 363 q -10 469 -47 431 q 61 544 26 508 q 126 607 96 579 q 174 646 157 635 q 182 642 176 643 q 192 638 188 640 q 197 630 194 635 q 206 618 200 625 q 179 590 193 604 q 144 551 165 575 q 197 569 176 563 q 240 583 217 576 q 268 564 258 571 q 281 550 278 557 q 282 533 285 543 q 271 501 279 522 l 242 425 q 264 436 256 432 q 281 446 272 440 q 333 483 306 463 q 390 524 361 504 q 447 560 419 544 q 500 581 475 575 q 546 571 526 588 q 563 526 565 554 q 556 497 561 511 q 544 465 550 482 q 533 424 539 446 q 535 376 526 401 q 596 356 564 356 q 660 368 628 357 q 774 407 718 386 q 889 450 831 428 l 939 471 l 950 422 z "},"l":{"ha":579,"x_min":-40,"x_max":672,"o":"m 643 968 q 672 915 671 935 q 647 867 672 894 q 589 806 619 835 q 526 753 558 778 q 323 617 426 679 q 111 497 219 556 q 46 431 69 475 q 25 333 22 388 q 58 328 29 325 q 131 340 86 331 q 233 364 175 349 q 351 397 290 379 q 474 434 413 415 q 588 471 535 453 q 597 445 592 456 q 585 426 601 435 q 467 379 539 406 q 319 330 396 353 q 172 292 243 307 q 56 278 100 278 q -17 318 6 279 q -29 411 -40 357 q -22 431 -28 421 q -12 451 -17 442 q -8 470 -8 461 q -14 489 -7 479 q 18 522 3 507 q 44 551 33 536 q 158 690 100 624 q 286 814 215 756 q 408 901 344 863 q 543 964 471 939 q 568 972 554 968 q 596 978 582 976 q 622 978 610 981 q 643 968 635 976 m 601 915 q 467 859 535 896 q 339 774 400 822 q 224 670 278 725 q 129 561 169 615 q 270 645 193 599 q 417 740 347 692 q 538 835 486 789 q 601 915 589 881 z "},"k":{"ha":754,"x_min":-85,"x_max":772,"o":"m 765 465 q 772 428 772 433 q 771 424 772 424 q 609 360 693 393 q 442 308 525 326 q 351 292 396 297 q 261 283 306 286 q 188 289 219 281 q 129 313 156 297 q 78 349 103 328 q 26 390 54 369 q -3 347 6 365 q -15 316 -11 328 q -22 299 -18 304 q -35 293 -25 293 q -73 310 -61 296 q -78 349 -85 325 q -42 424 -65 386 q 86 588 17 511 q 235 732 156 664 q 424 884 329 815 q 625 989 518 953 q 653 994 638 992 q 682 993 668 996 q 711 976 703 988 q 719 951 719 964 q 712 924 719 938 q 693 900 704 910 q 581 796 644 840 q 446 715 517 751 q 302 646 375 678 q 163 581 229 614 l 97 513 q 127 519 117 518 q 146 526 138 521 q 258 568 203 549 q 375 597 314 588 q 408 603 392 601 q 439 604 424 604 q 499 558 489 601 q 479 525 493 535 q 450 506 465 515 q 353 459 397 476 q 268 431 310 442 q 183 411 226 419 q 90 392 140 403 q 138 348 110 360 q 194 333 165 336 q 309 335 253 329 q 421 354 365 342 q 595 404 508 374 q 765 465 682 435 m 242 665 q 353 721 297 692 q 463 783 410 750 q 563 853 515 815 q 650 936 611 890 q 538 888 594 917 q 429 822 482 858 q 328 746 376 786 q 242 665 281 706 m 435 560 q 335 542 386 554 q 238 512 285 529 q 153 475 190 494 q 94 435 115 456 q 269 478 186 447 q 435 560 351 508 z "},"j":{"ha":556,"x_min":-472,"x_max":579,"o":"m -43 178 q 94 249 15 208 q 255 329 172 289 q 417 406 338 369 q 557 465 497 442 q 572 447 569 456 q 579 424 575 439 q 529 403 568 419 q 435 363 490 388 q 313 306 379 338 q 178 242 246 275 q 49 174 111 208 q -58 110 -12 140 q -148 42 -106 78 q -226 -36 -190 7 q -324 -136 -274 -89 q -432 -219 -374 -183 q -452 -201 -443 -210 q -472 -185 -461 -192 q -448 -141 -464 -162 q -412 -99 -432 -119 q -372 -60 -393 -78 q -333 -26 -351 -42 q -210 85 -268 26 q -97 208 -151 144 q 8 325 -46 268 q 114 440 61 382 q 133 464 122 451 q 158 496 143 476 q 67 451 106 478 q -10 397 29 425 q -22 411 -15 404 q -32 422 -28 418 q -19 457 -40 436 q 40 499 1 478 q 128 542 78 521 q 231 578 178 563 q 245 565 238 571 q 254 550 253 558 q 253 526 257 539 q 243 506 250 514 q 149 390 199 443 q 51 285 99 338 q 33 264 47 279 q 3 231 18 249 q -26 199 -12 214 q -43 178 -39 183 m 274 631 q 332 710 307 700 q 390 679 357 719 q 352 643 371 661 q 311 606 333 625 q 292 617 301 611 q 274 631 282 624 z "},"J":{"ha":992,"x_min":-62,"x_max":1303,"o":"m 6 190 q -3 173 0 181 q -11 158 -7 165 q -53 201 -44 183 q -51 238 -62 219 q -17 258 -40 253 q 35 247 7 263 q 83 213 60 232 q 126 174 106 194 q 162 135 146 156 q 193 93 178 114 q 225 62 208 75 q 265 46 242 49 q 315 62 293 50 q 358 92 338 74 q 465 190 417 136 q 557 301 513 244 q 753 568 663 432 q 931 847 844 704 q 972 912 951 879 q 1011 976 992 944 q 868 981 964 988 q 639 950 772 974 q 453 919 546 935 q 265 889 361 904 q 255 910 260 900 q 243 931 250 919 q 254 939 250 935 q 261 944 258 943 q 353 971 308 957 q 444 994 399 985 q 688 1039 567 1019 q 933 1065 810 1058 q 1224 1078 1078 1074 q 1250 1076 1236 1078 q 1279 1071 1264 1074 q 1291 1044 1285 1057 q 1303 1018 1297 1032 q 1283 997 1294 1004 q 1260 986 1272 990 q 1233 979 1247 982 q 1207 971 1219 976 q 1111 994 1167 1013 q 1040 897 1072 947 q 977 793 1007 846 q 917 688 947 740 q 853 583 886 635 q 685 329 771 453 q 494 93 599 206 q 445 44 471 68 q 392 1 419 21 q 293 -32 338 -37 q 203 21 249 -26 q 167 63 183 40 q 131 106 150 85 q 108 133 119 119 q 83 160 97 147 q 49 185 68 175 q 6 190 31 194 z "},"K":{"ha":1515,"x_min":-28,"x_max":1378,"o":"m 1353 1007 q 1366 985 1361 996 q 1378 967 1371 975 q 1371 956 1374 961 q 1365 949 1368 951 q 1137 807 1254 869 q 897 686 1019 744 q 649 580 774 628 q 396 492 524 532 q 371 483 383 489 q 347 472 358 478 q 339 456 347 472 q 392 447 367 454 q 421 444 407 447 q 449 439 435 442 q 658 403 554 421 q 867 367 763 386 q 1032 336 950 351 q 1197 306 1114 321 q 1244 294 1221 301 q 1282 267 1267 288 q 1289 251 1286 260 q 1299 232 1292 243 q 1047 276 1169 254 q 797 317 924 297 q 675 338 736 326 q 553 360 614 350 q 431 378 492 371 q 308 388 369 386 q 294 376 296 379 q 208 198 247 288 q 140 13 169 108 q 135 -7 138 3 q 131 -26 133 -17 q 125 -57 126 -46 q 125 -80 124 -68 q 131 -108 126 -92 q 143 -151 135 -124 q 90 -115 111 -137 q 71 -58 69 -93 q 76 6 74 -26 q 90 69 79 38 q 140 203 114 136 q 192 338 165 269 q 202 365 197 351 q 214 397 207 378 l 7 397 q -11 423 -3 411 q -28 450 -19 435 q 53 476 13 471 q 133 490 94 481 q 209 510 171 501 q 283 529 247 518 q 472 826 372 685 q 694 1088 571 967 q 728 1119 710 1104 q 764 1150 746 1133 q 784 1129 775 1139 q 806 1108 793 1119 q 585 856 681 990 q 397 572 489 721 q 422 574 413 574 q 439 576 431 574 q 874 751 663 653 q 1290 972 1086 849 q 1319 988 1304 981 q 1353 1007 1333 996 z "},"L":{"ha":1157,"x_min":-178,"x_max":1017,"o":"m 456 617 q 344 465 399 542 q 233 311 289 388 q 214 276 225 299 q 406 292 313 290 q 593 286 499 294 q 767 262 682 279 q 932 214 851 244 q 963 201 947 207 q 989 183 978 194 q 1005 163 999 175 q 1014 136 1011 150 q 999 103 1017 131 q 976 136 989 124 q 947 157 963 149 q 913 170 931 165 q 876 181 894 175 q 651 222 764 211 q 424 229 538 232 q 316 222 369 226 q 210 213 263 217 q 182 207 194 210 q 154 201 169 204 q 115 150 133 175 q 78 101 97 125 q 68 78 68 86 q 67 52 71 63 q 56 33 64 42 q 35 19 47 25 q 11 6 24 13 q -12 26 -1 15 q -35 44 -24 36 q -28 77 -35 63 q -14 106 -22 92 q 3 135 -6 121 q 17 164 11 149 q -68 135 -29 157 q -154 99 -107 114 q -165 110 -158 104 q -178 119 -172 115 q -170 135 -172 131 q -165 143 -168 140 q -84 189 -126 171 q 3 225 -42 207 q 41 238 21 232 q 82 251 61 244 q 170 370 126 311 q 260 489 214 429 q 415 687 338 589 q 572 882 492 785 q 678 989 621 940 q 800 1079 735 1038 q 897 1122 849 1108 q 968 1113 939 1135 q 996 1051 997 1092 q 992 1021 996 1036 q 981 993 988 1006 q 951 950 967 971 q 917 910 936 929 q 765 765 846 832 q 593 639 685 699 q 558 619 576 628 q 518 599 539 610 q 497 619 507 610 q 476 638 488 628 q 589 703 533 665 q 697 785 644 742 q 796 876 749 829 q 883 968 843 922 q 921 1018 910 996 q 942 1074 932 1040 q 860 1040 894 1063 q 793 993 825 1017 q 696 908 740 953 q 610 816 651 864 q 532 717 569 768 q 456 617 494 667 z "},"M":{"ha":1106,"x_min":-137,"x_max":1375,"o":"m 332 315 q 385 347 360 329 q 432 383 410 364 q 589 528 511 456 q 744 672 667 600 q 963 876 854 776 q 1192 1069 1072 976 q 1255 1118 1224 1094 q 1322 1158 1286 1142 q 1356 1142 1346 1154 q 1375 1114 1367 1129 q 1362 1076 1375 1092 q 1336 1043 1349 1060 q 1249 939 1292 990 q 1163 835 1207 888 q 950 539 1047 692 q 776 219 853 386 q 752 161 763 192 q 732 100 742 131 q 722 26 719 60 q 761 -31 725 -7 q 689 -8 717 -28 q 657 46 661 13 q 663 126 650 86 q 688 203 676 167 q 799 443 736 328 q 942 668 861 558 q 1029 785 983 728 q 1121 900 1075 842 q 1130 915 1126 907 q 1133 935 1133 924 q 1113 918 1124 926 q 1090 897 1101 910 q 883 703 986 800 q 675 507 779 606 q 587 423 631 464 q 497 342 543 382 q 447 303 474 322 q 393 267 419 283 q 359 251 374 256 q 331 247 344 246 q 303 255 317 247 q 272 275 290 263 q 260 285 265 279 q 251 296 256 290 q 256 375 236 338 q 292 456 274 417 q 332 535 311 494 q 440 702 381 622 q 560 861 499 782 q 588 901 575 881 q 613 946 601 922 q 597 935 606 940 q 582 924 589 931 q 424 766 497 849 q 285 592 350 683 q 118 353 200 474 q -49 114 36 233 q -66 84 -58 99 q -82 54 -74 69 q -112 53 -100 47 q -137 72 -124 58 q -128 94 -132 83 q -118 117 -125 104 q -52 222 -85 169 q 17 328 -19 275 q 188 576 100 453 q 378 815 275 699 q 499 942 436 882 q 636 1056 563 1003 q 675 1081 656 1069 q 718 1106 694 1092 q 744 1085 732 1094 q 765 1069 756 1076 q 766 1035 774 1049 q 750 1007 758 1022 q 713 952 732 979 q 675 897 694 925 q 560 740 618 818 q 450 579 503 661 q 395 487 421 533 q 346 394 369 440 q 333 358 338 376 q 321 324 328 340 q 326 319 324 321 q 332 315 329 317 z "},"N":{"ha":1157,"x_min":-93,"x_max":1231,"o":"m 596 1107 q 618 1090 610 1096 q 636 1075 626 1083 q 584 991 608 1031 q 535 913 560 951 q 502 856 515 885 q 482 794 489 828 q 444 589 467 690 q 418 383 422 488 q 415 292 415 340 q 425 200 414 244 q 444 152 433 168 q 469 133 454 136 q 503 136 483 129 q 547 158 522 143 q 613 203 582 178 q 671 257 643 228 q 769 380 725 315 q 853 500 813 444 q 1017 785 944 640 q 1151 1082 1090 931 q 1160 1114 1158 1097 q 1167 1150 1163 1131 q 1199 1153 1186 1160 q 1224 1133 1213 1146 q 1222 1088 1231 1110 q 1206 1044 1213 1067 q 1118 833 1165 936 q 1010 631 1071 731 q 911 470 963 550 q 806 313 860 390 q 742 235 776 272 q 672 160 708 197 q 637 130 657 144 q 596 103 617 115 q 535 78 567 83 q 473 78 503 72 q 418 102 443 85 q 376 147 393 119 q 344 235 351 189 q 337 331 336 282 q 344 427 338 379 q 357 518 351 475 q 372 599 361 558 q 389 686 382 639 q 369 665 378 674 q 356 647 361 656 q 194 402 274 524 q 35 156 115 281 q 22 130 26 143 q 14 101 17 117 q -2 65 7 82 q -35 31 -11 47 q -62 42 -49 36 q -93 54 -75 47 q -80 92 -86 74 q -64 128 -74 110 q 7 253 -28 190 q 83 378 42 315 q 226 590 154 486 q 376 799 299 694 q 431 893 408 846 q 463 994 454 940 q 469 1022 465 1008 q 475 1047 472 1036 q 497 1047 489 1050 q 508 1037 504 1043 q 517 1024 513 1031 q 528 1013 521 1017 q 559 1054 543 1032 q 596 1107 575 1076 z "},"O":{"ha":1118,"x_min":-24,"x_max":1047,"o":"m 93 254 q 57 284 75 271 q 24 315 39 297 q -22 431 -21 371 q 0 554 -24 492 q 79 708 31 638 q 189 843 128 779 q 351 980 264 921 q 540 1078 439 1039 q 692 1115 615 1106 q 844 1111 768 1125 q 913 1160 875 1135 q 997 1192 950 1186 q 1010 1169 1004 1181 q 1024 1142 1017 1157 q 972 1116 996 1129 q 919 1082 947 1103 q 938 1066 929 1074 q 956 1051 946 1058 q 1026 954 1006 1010 q 1047 839 1047 899 q 1032 719 1047 779 q 996 607 1017 658 q 901 437 958 517 q 775 286 844 357 q 628 156 706 215 q 471 49 550 96 q 386 10 431 25 q 294 -12 342 -4 q 203 -7 244 -21 q 135 36 163 7 q 93 106 107 65 q 83 189 79 146 q 88 219 86 204 q 93 254 90 235 m 960 782 q 812 631 897 711 q 624 477 726 551 q 408 344 522 403 q 175 256 293 285 q 144 172 149 214 q 153 100 139 131 q 202 57 168 69 q 290 60 236 44 q 370 84 331 71 q 447 117 410 97 q 741 344 611 208 q 944 653 871 481 q 986 772 968 711 q 1001 888 1004 833 q 965 981 997 942 q 854 1036 932 1021 q 844 1032 849 1033 q 836 1025 839 1031 q 610 838 718 936 q 410 626 503 740 q 354 558 382 594 q 300 485 326 522 q 251 408 274 447 q 211 332 228 369 q 408 424 314 365 q 592 550 503 482 q 766 690 681 618 q 936 821 851 761 q 948 801 943 810 q 960 782 953 793 m 119 329 q 134 353 129 344 q 143 368 139 361 q 262 558 194 471 q 404 731 329 646 q 568 894 482 818 q 744 1046 654 971 q 710 1043 724 1043 q 686 1040 697 1043 q 537 994 607 1026 q 400 917 467 961 q 201 738 286 839 q 63 510 115 638 q 46 455 54 486 q 40 396 38 424 q 60 349 43 368 q 119 329 78 329 z "},"P":{"ha":1200,"x_min":-42,"x_max":1376,"o":"m 254 769 q 228 803 238 789 q 215 829 218 817 q 217 855 213 842 q 232 885 221 868 q 302 970 261 933 q 393 1035 343 1007 q 496 1079 443 1061 q 603 1108 549 1097 q 883 1135 744 1138 q 1161 1089 1021 1132 q 1263 1044 1210 1075 q 1361 939 1328 1008 q 1376 860 1376 899 q 1351 786 1375 822 q 1272 697 1317 738 q 1165 615 1221 651 q 1049 544 1108 578 q 757 401 906 465 q 451 288 608 338 q 397 261 419 278 q 363 213 375 244 q 324 121 344 167 q 283 28 303 75 q 246 -65 263 -18 q 219 -162 229 -112 q 192 -148 203 -154 q 177 -134 182 -142 q 172 -116 172 -126 q 176 -90 172 -106 q 198 -14 188 -53 q 224 61 208 25 q 256 146 239 104 q 292 236 274 188 q 217 222 254 231 q 142 205 179 213 q 66 194 104 197 q -12 200 28 192 q -28 225 -19 211 q -42 249 -36 239 q -33 285 -42 272 q -11 308 -25 299 q 32 338 11 324 q 76 367 53 353 q 259 467 168 417 q 442 565 350 517 q 486 594 467 579 q 521 633 506 610 q 561 694 540 665 q 604 756 582 724 q 628 784 615 771 q 656 815 640 797 q 676 799 667 807 q 696 785 685 792 q 691 749 693 767 q 686 713 689 732 l 653 713 q 640 691 646 701 q 626 671 633 681 q 638 664 638 663 q 673 674 656 668 q 710 686 690 681 q 722 671 717 678 q 732 657 726 664 q 724 645 726 650 q 718 638 722 640 q 656 606 686 622 q 594 574 626 589 q 553 547 569 563 q 525 508 538 532 q 490 444 508 476 q 449 372 471 411 q 474 375 464 375 q 492 378 485 375 q 811 510 656 439 q 1114 674 967 581 q 1224 752 1169 710 q 1310 849 1278 794 q 1326 917 1332 890 q 1285 969 1321 943 q 1190 1017 1243 999 q 1117 1040 1154 1031 q 1044 1056 1081 1050 q 779 1071 910 1078 q 521 1019 649 1064 q 431 982 476 1004 q 347 928 385 960 q 283 858 308 897 q 254 769 257 818 m 67 272 q 204 293 138 276 q 340 329 271 310 q 360 363 350 347 q 378 396 369 379 q 395 432 386 414 q 413 468 404 450 q 235 381 321 428 q 67 272 149 333 z "},"ยข":{"ha":693,"x_min":-11,"x_max":588,"o":"m 565 401 q 503 376 533 386 q 442 357 472 365 q 344 330 393 342 q 244 304 294 318 q 202 206 217 257 q 182 101 188 156 q 140 146 138 110 q 149 222 140 185 q 156 256 151 239 q 168 297 161 274 q 142 293 157 296 q 112 289 128 290 q 79 290 96 288 q 49 300 63 292 q 1 360 13 321 q 11 435 -11 400 q 78 520 39 482 q 163 590 117 558 q 257 644 208 621 q 354 683 306 667 q 406 710 383 694 q 447 750 428 725 q 496 806 469 779 q 549 860 522 832 l 588 831 q 549 778 568 803 q 510 728 529 753 q 537 707 524 715 q 558 690 550 699 q 569 671 567 682 q 567 642 572 660 q 556 619 563 629 q 538 599 549 610 q 511 574 528 588 q 469 543 494 561 l 442 558 q 471 595 450 572 q 504 638 492 618 q 512 668 517 658 q 463 665 507 678 q 364 521 411 594 q 272 363 317 447 q 413 394 347 376 q 542 439 478 413 q 543 440 543 439 q 544 440 543 440 l 565 401 m 347 622 q 253 576 303 603 q 160 515 203 550 q 88 439 118 481 q 53 350 58 397 q 126 344 93 343 q 189 350 158 344 l 347 622 z "},"ยฃ":{"ha":801,"x_min":-101,"x_max":789,"o":"m -79 140 q -90 160 -86 151 q -101 176 -94 168 q -51 208 -78 196 q 3 228 -25 219 q 58 244 31 238 q 114 263 86 251 q 155 355 135 308 q 197 450 175 401 q 142 445 167 453 q 89 431 117 438 q 78 444 83 438 q 67 460 74 451 q 105 488 85 478 q 147 502 125 497 q 190 510 168 507 q 235 518 213 514 q 256 549 246 533 q 274 581 265 565 q 394 757 332 672 q 533 917 456 842 q 594 969 563 944 q 667 1006 626 993 q 700 1013 682 1011 q 733 1010 718 1014 q 777 969 765 999 q 776 907 789 939 q 764 885 771 896 q 750 864 757 875 q 476 640 633 731 q 451 632 467 635 q 441 635 446 633 q 432 640 436 638 q 427 646 429 643 q 422 653 425 649 q 426 660 424 656 q 432 667 428 665 q 562 756 500 708 q 678 861 624 803 q 720 913 706 889 q 740 972 735 936 q 647 935 686 961 q 567 872 607 908 q 439 719 496 800 q 332 551 382 639 q 329 544 329 549 q 326 535 329 539 q 442 538 385 536 q 557 542 499 540 q 589 542 574 542 q 619 539 604 543 q 640 527 631 536 q 668 506 649 518 q 563 497 610 500 q 469 489 517 494 q 377 481 424 486 q 283 469 331 476 q 231 376 257 422 q 183 275 204 331 q 238 278 214 276 q 286 282 263 281 q 460 290 374 289 q 633 276 546 292 q 674 265 656 274 q 697 225 693 256 q 630 231 663 228 q 565 235 597 233 q 498 235 531 235 q 432 233 465 235 q 366 231 399 233 q 299 225 333 228 q 238 217 268 221 q 178 204 207 213 q 147 197 163 199 q 115 194 131 196 q 83 191 99 193 q 51 182 67 189 q -10 160 22 169 q -79 140 -43 151 z "},"ยค":{"ha":672,"x_min":14,"x_max":589,"o":"m 164 531 q 218 549 192 538 q 272 569 244 561 q 326 578 299 578 q 382 563 353 578 q 465 611 425 586 q 546 661 506 636 q 589 638 564 651 q 519 586 553 611 q 449 535 485 561 q 453 513 451 524 q 457 490 454 501 q 444 467 453 476 q 423 450 435 457 q 399 436 411 443 q 376 421 388 429 q 424 349 400 385 q 472 275 447 313 q 435 274 449 264 q 411 296 422 283 q 372 350 392 324 q 333 404 353 376 q 252 388 292 397 q 177 361 213 378 q 112 318 142 344 q 60 253 82 292 q 35 256 40 253 q 24 258 28 256 q 17 263 21 260 q 15 278 14 271 q 24 295 17 285 q 45 320 31 306 q 83 358 60 335 q 66 389 75 374 q 49 419 57 404 q 60 444 56 435 q 72 461 65 453 q 90 479 79 469 q 122 507 101 489 q 98 542 111 525 q 72 579 85 560 q 92 581 85 581 q 108 577 100 582 q 129 562 117 572 q 164 531 142 551 m 390 503 q 348 512 364 508 q 318 514 332 515 q 286 507 304 513 q 238 492 268 501 q 183 466 210 481 q 132 425 157 451 q 209 433 171 426 q 282 451 247 440 q 344 474 317 461 q 390 503 372 488 z "},"ยฅ":{"ha":608,"x_min":-1,"x_max":571,"o":"m 129 350 q 90 340 107 344 q 51 331 72 335 q 40 343 47 338 q 26 358 33 349 q 73 387 49 382 q 124 394 97 392 q 158 400 142 397 q 181 431 174 403 q 102 424 138 438 q 31 392 67 411 q 15 407 24 399 q -1 425 6 415 q 26 450 11 442 q 59 464 42 458 q 94 473 76 469 q 128 483 111 476 q 102 501 114 492 q 79 518 90 510 q 86 526 81 521 q 83 537 85 532 q 81 547 81 542 q 85 585 83 565 q 94 622 88 604 q 151 767 118 697 q 221 907 183 838 q 230 921 224 914 q 243 936 236 928 q 258 925 251 931 q 272 913 265 919 q 242 830 260 871 q 208 748 225 789 q 177 665 192 707 q 156 579 163 622 q 347 732 256 651 q 533 888 438 813 q 571 863 554 872 q 565 849 567 856 q 557 835 563 842 q 460 709 508 772 q 363 581 413 646 q 341 550 351 565 q 317 517 331 535 q 361 516 339 514 q 403 517 383 518 q 442 508 424 515 q 475 478 460 500 q 378 471 425 475 q 282 461 332 467 q 267 439 275 450 q 247 413 258 428 q 335 399 304 404 q 382 388 367 393 q 403 374 397 382 q 417 354 410 367 q 363 360 389 357 q 311 363 336 363 q 260 361 286 364 q 210 356 235 358 q 132 238 165 297 q 69 115 99 178 q 42 126 49 115 q 38 149 36 136 q 46 179 40 164 q 57 207 51 194 q 85 260 71 235 q 114 313 99 286 q 120 328 117 319 q 129 350 124 336 m 167 497 q 213 494 193 490 q 247 518 232 499 q 282 566 265 542 q 315 614 299 590 l 307 622 q 238 560 274 590 q 167 497 203 531 z "},"โฌ":{"ha":1115,"x_min":-7,"x_max":1072,"o":"m 21 583 q -7 621 10 600 q 3 633 0 628 q 14 642 7 639 q 97 669 54 663 q 185 683 140 676 q 228 689 207 686 q 264 694 249 692 q 372 787 321 743 q 476 871 424 831 q 586 944 529 911 q 706 1004 643 978 q 867 1042 783 1036 q 988 1015 931 1049 q 1067 874 1072 967 q 1063 844 1065 858 q 1056 815 1061 829 q 1015 720 1040 765 q 956 633 989 675 q 940 619 949 626 q 921 603 932 613 q 908 613 914 610 q 896 621 901 617 q 901 640 899 636 q 942 702 921 672 q 981 765 964 732 q 1019 878 1008 819 q 1003 965 1031 935 q 915 996 975 996 q 858 990 888 996 q 803 978 829 985 q 669 924 733 954 q 530 835 594 883 q 404 733 465 788 q 392 719 397 726 q 375 700 386 711 q 461 699 421 699 q 542 697 501 699 q 567 695 554 696 q 592 692 581 694 q 649 650 635 685 q 647 635 651 643 q 639 615 642 626 q 615 632 625 625 q 590 649 604 639 q 450 649 521 649 q 304 636 379 649 q 263 587 285 613 q 217 533 242 561 q 257 528 239 526 q 290 532 275 529 q 403 536 347 539 q 513 525 458 533 q 556 514 536 522 q 592 489 575 506 q 599 477 596 485 q 608 457 601 469 q 465 488 533 488 q 325 482 396 489 q 249 473 286 476 q 171 465 211 469 q 106 347 135 407 q 78 217 78 286 q 78 195 78 206 q 79 174 78 185 q 140 113 90 129 q 220 106 182 100 q 299 124 258 113 q 403 157 351 136 q 503 204 454 178 q 651 295 582 247 q 788 399 721 343 q 817 429 803 413 q 850 465 832 446 q 876 453 867 465 q 893 421 886 440 q 877 399 885 410 q 858 379 869 388 q 628 197 750 276 q 358 72 507 117 q 285 56 322 61 q 208 54 247 51 q 134 70 168 56 q 75 109 100 85 q 35 166 50 133 q 21 236 21 199 q 28 315 18 276 q 54 389 39 353 q 62 410 58 400 q 63 432 65 419 q 49 420 56 426 q 31 407 42 414 q 15 422 24 414 q 0 440 7 431 q 22 469 8 458 q 53 488 36 481 q 88 501 69 496 q 122 513 106 506 q 160 563 142 538 q 203 621 179 589 q 108 615 153 624 q 21 583 64 607 z "},"@":{"ha":1224,"x_min":-85,"x_max":1068,"o":"m 1043 356 q 1068 326 1057 336 q 1051 301 1064 314 q 1022 278 1038 289 q 989 258 1006 267 q 961 244 972 250 q 690 121 828 174 q 401 36 551 68 q 277 19 339 24 q 151 26 215 15 q -61 182 10 53 q -85 272 -85 226 q -69 365 -85 318 q -20 464 -51 419 q 53 549 11 508 q 674 854 310 804 q 770 863 722 861 q 867 851 818 865 q 906 838 886 844 q 943 821 925 831 q 1013 740 992 790 q 1018 633 1033 689 q 978 538 1006 582 q 697 274 876 367 q 649 254 674 261 q 596 254 625 247 q 558 283 569 267 q 546 320 547 300 q 551 363 544 340 q 567 408 558 385 q 503 386 533 401 q 444 356 474 371 q 384 331 415 342 q 318 319 353 319 q 297 338 307 329 q 281 351 288 347 q 280 376 281 369 q 281 386 279 383 q 294 413 288 400 q 308 435 300 425 q 621 639 436 582 q 663 622 649 635 q 685 586 678 608 q 678 555 681 567 q 672 532 676 543 q 658 507 667 521 q 635 468 650 493 q 638 429 642 447 q 627 392 635 411 q 611 354 619 374 q 601 313 603 335 q 622 315 613 314 q 640 318 632 315 q 943 596 835 410 q 965 640 957 617 q 976 688 972 664 q 969 751 983 728 q 915 790 954 775 q 819 812 868 810 q 722 807 771 814 q 410 717 556 783 q 139 535 264 650 q 67 463 100 501 q 11 379 35 424 q -15 315 -7 347 q -26 246 -24 282 q -8 172 -28 201 q 50 125 13 143 q 150 95 99 101 q 254 92 201 89 q 482 128 372 97 q 699 201 592 160 q 853 268 778 232 q 1004 338 928 304 q 1022 347 1013 342 q 1043 356 1032 351 m 601 501 q 619 535 608 517 q 631 583 631 554 q 379 400 475 525 q 488 450 433 425 q 601 501 543 475 z "},"A":{"ha":1886,"x_min":-1,"x_max":1783,"o":"m 1336 499 q 1456 499 1400 499 q 1567 499 1511 500 q 1689 486 1628 497 q 1783 410 1761 478 q 1750 419 1761 418 q 1715 431 1733 426 q 1681 436 1697 435 q 1492 435 1585 442 q 1304 421 1399 428 q 1293 419 1297 421 q 1286 415 1289 417 q 1206 305 1244 364 q 1138 190 1167 246 q 1093 87 1110 133 q 1078 14 1076 40 q 1155 47 1124 21 q 1215 108 1186 72 q 1236 94 1226 101 q 1256 82 1246 86 q 1074 -35 1194 -36 q 1010 17 1025 -14 q 1019 100 996 49 q 1072 208 1043 156 q 1128 313 1100 260 q 1158 360 1143 336 q 1192 411 1174 383 q 839 378 1010 399 q 497 335 668 358 q 390 201 439 268 q 301 61 342 133 q 306 42 304 51 q 310 24 307 33 q 290 12 299 17 q 272 1 281 7 q 265 6 268 4 q 261 10 261 7 q 255 48 251 29 q 268 85 258 67 q 317 172 292 129 q 369 258 343 215 q 388 289 378 274 q 414 325 399 304 q 315 310 364 317 q 219 295 267 303 q 124 276 171 288 q 32 244 78 264 q 17 257 25 250 q -1 271 10 264 q 33 305 11 294 q 76 321 56 315 q 186 345 132 333 q 296 368 240 357 q 383 383 339 376 q 474 399 428 390 q 508 439 493 418 q 738 663 618 557 q 997 861 858 769 q 1152 953 1072 911 q 1318 1028 1232 996 q 1392 1049 1356 1040 q 1464 1064 1428 1057 q 1517 1063 1490 1069 q 1564 1040 1543 1056 q 1595 1001 1585 1024 q 1600 953 1606 978 q 1585 897 1593 925 q 1561 844 1576 869 q 1493 735 1528 790 q 1422 625 1458 679 q 1382 564 1403 594 q 1336 499 1361 533 m 1538 1008 q 1419 996 1478 1010 q 1302 958 1360 982 q 1191 906 1244 935 q 1089 846 1138 876 q 826 657 947 758 q 596 443 706 556 q 587 432 589 438 q 579 418 585 426 q 913 456 749 438 q 1251 493 1078 474 q 1362 661 1304 576 q 1478 833 1419 746 q 1499 870 1486 847 q 1522 918 1511 893 q 1539 967 1533 943 q 1538 1008 1544 992 z "},"a":{"ha":617,"x_min":-87,"x_max":643,"o":"m 294 560 q 328 583 314 572 q 358 607 343 594 q 380 589 369 597 q 401 569 390 581 q 323 492 363 529 q 253 411 283 456 q 235 379 242 396 q 228 351 228 363 q 241 336 229 339 q 281 344 253 333 q 372 378 332 364 q 450 406 413 393 q 526 433 488 419 q 608 464 564 446 q 631 461 621 467 q 643 438 640 456 q 567 406 601 419 q 499 377 532 392 q 430 347 465 363 q 353 310 394 331 q 235 291 286 279 q 157 372 185 303 q 83 327 115 347 q 19 288 51 307 q -9 274 3 278 q -32 272 -21 269 q -56 285 -43 275 q -87 311 -68 294 q -57 403 -79 369 q 1 469 -35 438 q 20 485 11 476 q 40 501 29 493 q 158 563 96 543 q 294 560 221 582 m -1 360 q 66 397 35 379 q 127 432 97 414 q 188 471 157 450 q 253 517 218 492 q 113 486 174 521 q -1 360 51 451 z "},"b":{"ha":774,"x_min":-51,"x_max":789,"o":"m 25 540 q 153 726 83 638 q 310 889 224 814 q 385 949 346 921 q 464 1004 424 978 q 506 1024 483 1017 q 550 1038 528 1031 q 588 1039 571 1044 q 617 1019 606 1033 q 633 984 629 1004 q 629 943 638 964 q 582 858 613 900 q 514 781 549 819 q 442 706 479 742 q 360 630 401 665 q 275 563 319 594 q 343 588 308 576 q 414 608 378 599 q 454 615 433 613 q 496 614 475 617 q 552 581 538 613 q 544 511 567 549 q 531 488 539 499 q 514 464 524 478 q 569 462 543 460 q 619 465 594 464 q 690 471 656 468 q 760 472 725 474 q 785 460 781 472 q 783 425 789 449 q 720 423 746 424 q 674 421 694 422 q 635 418 654 419 q 592 415 617 417 q 545 409 568 413 q 500 403 522 406 q 428 386 464 396 q 358 357 393 376 q 256 313 308 332 q 150 274 203 293 q 116 265 133 267 q 79 261 99 264 q 56 300 68 281 q 67 321 63 317 q 109 351 88 336 q 154 376 131 367 q 228 399 190 389 q 304 419 265 410 q 366 440 338 426 q 419 474 394 454 q 467 516 449 496 q 485 548 485 536 q 467 562 486 560 q 404 550 447 564 q 223 476 308 522 q 63 360 138 429 q 24 319 42 340 q 10 263 6 299 q -35 292 -25 271 q -49 339 -46 314 q -44 388 -51 361 q -26 442 -37 415 q -1 495 -14 469 q 25 540 13 521 m 124 533 q 172 560 147 549 q 222 589 197 572 q 518 863 392 703 q 561 926 544 893 q 574 951 568 938 q 572 982 579 964 q 498 967 532 985 q 429 926 464 950 q 242 751 325 847 q 90 543 160 654 q 87 532 83 535 q 97 529 90 529 q 113 531 104 529 q 124 533 121 532 m 53 465 q 42 439 47 451 q 32 413 38 426 q 48 424 40 419 q 64 436 56 429 q 85 453 75 444 q 107 469 96 463 l 101 467 q 53 465 75 453 z "},"B":{"ha":1303,"x_min":-149,"x_max":1404,"o":"m -149 135 q -76 89 -112 106 q -1 64 -39 72 q 78 53 38 56 q 161 51 118 51 q 120 124 121 88 q 135 197 119 161 q 185 316 158 257 q 240 433 213 375 q 258 470 250 453 q 246 511 265 488 q 297 538 281 519 q 328 581 314 557 q 438 735 381 660 q 565 879 494 811 q 588 900 576 890 q 611 921 600 910 q 622 926 617 924 q 636 933 626 928 q 656 921 647 926 q 676 908 665 915 q 668 884 671 896 q 661 860 665 872 q 643 857 653 858 q 624 853 633 856 q 508 713 561 786 q 401 554 454 640 q 460 573 435 565 q 508 588 485 581 q 816 707 667 640 q 1108 857 965 774 q 1169 893 1132 871 q 1242 942 1206 915 q 1306 997 1278 968 q 1343 1053 1335 1026 q 1272 1079 1315 1072 q 1180 1086 1228 1086 q 1086 1082 1132 1086 q 1010 1075 1040 1078 q 772 1042 888 1064 q 540 982 656 1019 q 391 925 464 958 q 250 849 318 892 q 200 814 224 832 q 151 778 176 796 q 160 752 156 763 q 169 729 164 742 q 124 746 135 731 q 104 781 113 761 q 131 824 111 808 q 171 857 150 840 q 303 939 233 903 q 447 1004 372 975 q 685 1081 565 1051 q 931 1125 804 1110 q 1026 1135 979 1131 q 1121 1142 1072 1140 q 1202 1141 1161 1143 q 1282 1132 1243 1139 q 1346 1110 1318 1126 q 1388 1057 1374 1093 q 1381 981 1404 1015 q 1328 924 1357 947 q 1237 860 1282 892 q 1143 801 1192 828 q 945 701 1046 747 q 740 613 844 654 q 709 597 724 606 q 679 578 694 589 q 813 565 743 571 q 911 549 863 561 q 1004 517 960 538 q 1065 476 1039 500 q 1106 418 1090 453 q 1088 282 1144 343 q 1042 235 1067 257 q 990 193 1018 213 q 788 86 894 128 q 568 19 682 44 q 375 -11 472 -1 q 179 -17 278 -21 q 76 -8 128 -14 q -24 18 25 -1 q -71 40 -49 26 q -115 67 -93 53 q -138 91 -131 75 q -149 135 -146 107 m 1067 406 q 1019 447 1047 433 q 961 469 992 460 q 858 495 911 488 q 753 507 806 503 q 604 505 678 510 q 458 493 531 500 q 403 484 431 490 q 354 472 376 478 q 299 380 325 426 q 254 292 274 333 q 222 217 235 250 q 207 163 210 183 q 231 167 222 174 q 249 149 240 161 q 249 138 249 143 q 249 129 250 133 q 231 92 240 110 q 211 51 222 74 l 264 51 q 601 108 439 63 q 911 240 763 153 q 963 273 938 256 q 1009 310 988 290 q 1046 353 1031 329 q 1067 406 1061 376 z "},"C":{"ha":1571,"x_min":-31,"x_max":1522,"o":"m 1408 403 q 1435 360 1432 376 q 1426 332 1438 344 q 1390 307 1414 319 q 1339 274 1367 294 q 913 74 1136 150 q 464 -25 690 -3 q 328 -28 396 -32 q 193 -4 261 -24 q 119 28 153 8 q 57 76 86 47 q 8 272 -31 157 q 58 376 28 328 q 128 467 89 425 q 191 537 158 503 q 260 601 224 571 q 649 878 444 761 q 1086 1065 853 996 q 1194 1092 1140 1081 q 1307 1100 1249 1103 q 1389 1083 1350 1097 q 1460 1039 1428 1069 q 1514 944 1506 997 q 1488 839 1522 890 q 1356 701 1433 753 q 1178 628 1278 650 q 1149 623 1164 625 q 1120 624 1135 621 q 1090 634 1106 626 q 1061 657 1075 642 q 1267 730 1171 678 q 1422 865 1364 782 q 1456 942 1454 910 q 1441 996 1458 975 q 1392 1028 1424 1017 q 1324 1042 1361 1039 q 1250 1039 1288 1044 q 1185 1022 1213 1033 q 930 936 1051 990 q 692 813 808 882 q 434 644 557 735 q 207 438 311 554 q 142 358 172 400 q 88 268 111 315 q 69 159 60 203 q 110 89 78 115 q 190 51 142 63 q 293 36 239 39 q 399 38 347 33 q 489 47 451 42 q 893 151 700 78 q 1272 326 1086 225 q 1338 363 1304 344 q 1408 403 1371 382 z "},"c":{"ha":601,"x_min":-69,"x_max":621,"o":"m 621 431 q 579 413 593 419 q 554 402 565 407 q 528 391 543 397 q 486 375 514 385 q 376 335 432 354 q 264 300 319 317 q 190 282 228 289 q 113 269 151 275 q 40 274 75 265 q -24 308 6 283 q -65 365 -60 338 q -42 429 -69 393 q 1 479 -22 456 q 50 524 25 503 q 208 592 121 579 q 277 585 246 599 q 336 525 308 572 q 322 510 329 517 q 304 494 314 503 q 273 519 285 510 q 250 539 261 529 q 162 512 204 531 q 87 467 119 493 q 33 408 54 440 q 6 342 11 376 q 46 326 25 328 q 90 326 67 324 q 211 347 153 332 q 328 382 269 363 q 406 408 374 397 q 469 430 439 419 q 533 452 500 440 q 611 479 567 464 l 621 431 z "},"d":{"ha":750,"x_min":-89,"x_max":926,"o":"m 897 968 q 926 915 925 935 q 901 867 926 894 q 843 806 874 835 q 781 753 813 778 q 577 617 681 679 q 365 497 474 556 q 300 431 324 475 q 279 333 276 388 q 328 324 283 318 q 441 349 372 329 q 593 400 510 369 q 760 464 676 431 q 769 438 764 449 q 757 419 774 428 q 653 374 711 399 q 533 327 594 349 q 413 292 471 306 q 310 278 354 278 q 238 315 261 279 q 224 404 214 351 q 203 390 213 397 q 182 376 193 383 q 110 332 146 354 q 36 293 74 310 q -36 287 -8 274 q -89 346 -64 300 q -75 378 -82 361 q -57 410 -68 394 q 30 502 -21 465 q 143 563 81 539 q 219 574 183 578 q 283 535 256 571 l 285 535 l 299 551 q 412 690 354 624 q 540 814 469 756 q 662 901 599 863 q 797 964 725 939 q 822 972 808 968 q 850 978 836 976 q 876 978 864 981 q 897 968 889 976 m 856 915 q 722 859 789 896 q 593 774 654 822 q 478 670 532 725 q 383 561 424 615 q 524 645 447 599 q 671 740 601 692 q 792 835 740 789 q 856 915 843 881 m 61 451 q 8 397 25 421 q -18 340 -8 372 q 40 359 7 344 q 110 397 74 374 q 185 449 147 419 q 257 510 224 478 q 213 530 239 531 q 159 517 188 529 q 105 485 131 504 q 61 451 79 467 z "},"D":{"ha":1525,"x_min":-208,"x_max":1492,"o":"m 143 28 q 129 6 132 17 q 128 -17 126 -6 q 134 -40 131 -29 q 139 -64 138 -51 q 83 -32 99 -57 q 65 28 68 -7 q 10 36 38 33 q -44 46 -17 39 q -97 58 -71 51 q -149 75 -124 64 q -192 109 -175 86 q -201 168 -208 132 q -186 159 -193 163 q -176 149 -179 156 q -149 124 -165 132 q -114 113 -133 117 q -19 99 -68 106 q 82 100 29 93 q 92 124 88 113 q 101 149 97 135 q 244 467 164 313 q 432 764 324 621 q 506 854 467 811 q 593 935 546 897 q 629 959 611 946 q 671 975 647 972 q 680 970 675 972 q 688 965 685 968 q 699 952 694 958 q 710 938 703 946 q 703 915 707 926 q 693 892 699 904 q 674 896 683 894 q 656 899 664 897 q 569 808 618 868 q 467 674 519 749 q 365 517 415 600 q 273 355 314 433 q 203 209 232 276 q 169 100 175 142 q 291 109 232 103 q 410 129 350 115 q 856 288 647 183 q 1244 547 1064 392 q 1308 608 1276 575 q 1367 677 1340 642 q 1411 751 1393 713 q 1433 828 1429 789 q 1371 978 1447 919 q 1258 1035 1318 1015 q 1133 1064 1197 1056 q 535 967 817 1101 q 436 912 482 943 q 350 840 390 881 q 306 794 326 819 q 281 729 286 769 q 257 756 265 746 q 242 775 249 767 q 243 788 243 783 q 246 796 243 793 q 277 853 257 828 q 321 899 297 878 q 478 1010 392 967 q 661 1082 565 1053 q 932 1130 796 1122 q 1207 1101 1068 1138 q 1342 1049 1275 1088 q 1428 979 1393 1019 q 1477 892 1463 939 q 1487 792 1492 844 q 1456 689 1482 740 q 1373 564 1422 619 q 1264 458 1324 508 q 888 215 1088 314 q 458 67 688 115 q 333 47 397 51 q 206 35 269 42 q 173 31 189 32 q 143 28 157 31 z "},"E":{"ha":1406,"x_min":-79,"x_max":1500,"o":"m 321 589 q 244 573 278 579 q 176 561 211 567 q 166 578 171 569 q 159 594 161 588 q 161 608 157 601 q 178 618 165 614 q 285 646 231 633 q 393 674 339 658 q 404 678 397 676 q 426 682 411 679 q 476 736 449 707 q 533 797 504 765 q 585 856 560 825 q 640 918 611 886 q 658 902 650 910 q 672 888 665 894 q 645 838 661 860 q 610 794 629 815 q 572 751 592 772 q 535 704 551 729 q 607 715 574 710 q 672 724 640 721 q 819 735 746 729 q 964 744 892 740 q 981 745 972 746 q 999 743 989 744 q 1023 739 1014 742 q 1038 730 1032 736 q 1049 711 1044 724 q 1058 678 1053 699 q 1018 643 1044 664 q 1003 665 1011 654 q 989 686 996 675 q 718 657 851 675 q 450 615 585 639 q 440 610 444 613 q 432 604 435 607 q 242 408 335 507 q 67 200 150 308 q 8 114 35 160 q -8 61 -8 82 q 5 30 -8 40 q 42 18 18 19 q 96 24 67 17 q 268 58 183 42 q 438 94 353 75 q 759 171 600 132 q 1081 249 918 210 q 1122 257 1101 254 q 1167 263 1143 260 q 1180 241 1174 251 q 1196 219 1186 231 q 1174 211 1182 214 q 1158 206 1165 208 q 735 102 944 154 q 313 -1 525 50 q 183 -30 247 -18 q 51 -39 118 -42 q 3 -31 26 -37 q -37 -4 -19 -24 q -72 56 -64 24 q -61 124 -79 89 q 11 243 -31 192 q 138 387 74 317 q 265 529 203 457 q 290 556 278 543 q 321 589 303 569 m 1493 965 q 1334 1010 1421 992 q 1153 1040 1247 1029 q 962 1052 1060 1050 q 771 1046 864 1054 q 633 1026 704 1040 q 496 988 563 1013 q 372 928 429 964 q 278 842 315 892 q 251 864 257 849 q 240 894 244 879 q 252 930 243 915 q 275 956 261 944 q 432 1038 339 1006 q 633 1090 525 1071 q 856 1113 740 1108 q 1081 1110 971 1118 q 1288 1085 1190 1103 q 1454 1042 1385 1068 q 1490 1017 1481 1032 q 1493 965 1500 1001 z "},"e":{"ha":665,"x_min":-39,"x_max":678,"o":"m 292 503 q 268 476 292 490 q 206 447 244 461 q 119 422 167 433 q 22 406 71 411 q 40 360 19 374 q 89 342 60 346 q 150 342 118 339 q 201 346 182 344 q 442 399 328 365 q 671 465 556 433 q 678 447 678 454 q 674 435 678 440 q 666 428 671 431 q 658 425 661 426 q 513 376 585 400 q 371 331 440 351 q 234 299 301 311 q 103 286 167 286 q 15 310 49 286 q -28 368 -18 333 q -22 442 -39 403 q 40 510 -6 481 q 233 565 125 567 q 272 550 257 564 q 292 503 286 536 m 90 465 q 147 481 122 472 q 196 508 172 489 q 141 498 164 508 q 90 465 118 488 z "},"f":{"ha":653,"x_min":-169,"x_max":685,"o":"m 481 681 q 496 668 489 674 q 510 656 503 663 q 510 644 510 649 q 510 638 511 640 q 492 621 501 631 q 472 608 483 611 q 413 584 444 601 q 355 546 382 567 q 308 505 328 525 q 285 474 289 485 q 487 476 393 476 q 664 474 581 476 q 681 465 676 474 q 685 448 685 457 q 681 430 685 439 q 674 419 678 421 q 492 419 581 424 q 311 419 404 415 q 260 313 296 363 q 177 219 224 263 q 80 139 131 175 q -15 74 29 103 q -63 43 -39 57 q -121 26 -87 29 q -142 43 -132 33 q -162 60 -153 53 q -156 113 -169 92 q -129 153 -142 133 q -28 283 -89 215 q 106 417 32 351 q 73 413 89 417 q 41 407 57 410 q 10 403 25 404 q -19 410 -6 403 q -27 428 -24 417 q -19 463 -31 439 q 76 467 29 464 q 169 471 122 469 q 321 586 244 532 q 481 681 397 640 m -81 103 q -25 133 -58 113 q 47 184 8 154 q 124 251 85 214 q 199 328 164 288 q 233 381 225 358 q 233 413 240 404 q 206 415 226 422 q 154 381 185 408 q 27 251 86 319 q -81 103 -32 183 z "},"F":{"ha":1200,"x_min":-115,"x_max":1414,"o":"m 1038 585 q 987 597 1010 592 q 942 604 964 603 q 867 608 913 607 q 766 608 821 608 q 653 606 711 607 q 540 601 594 604 q 439 596 485 599 q 364 589 393 593 q 313 534 344 572 q 242 447 281 496 q 163 340 204 397 q 85 227 122 282 q 17 124 47 172 q -31 42 -14 75 q -18 19 -25 31 q 0 -8 -11 7 q -36 -28 -19 -19 q -69 -47 -53 -37 q -115 -6 -97 -22 q -98 65 -112 35 q -67 122 -83 94 q 65 320 -1 222 q 197 517 131 418 q 219 547 208 532 q 246 585 231 563 q 135 574 188 579 q 28 564 82 569 q 8 599 18 582 q 24 617 18 614 q 85 631 56 624 q 144 646 114 639 q 228 657 186 653 q 315 665 271 661 q 387 742 350 701 q 464 818 424 782 q 540 888 500 854 q 624 960 579 922 l 174 960 q 163 951 171 957 q 147 938 156 944 q 130 963 128 949 q 131 992 132 978 q 140 1003 136 999 q 147 1010 143 1007 q 183 1018 165 1014 q 221 1022 201 1022 q 583 1039 403 1032 q 946 1054 764 1046 q 1136 1066 1042 1058 q 1326 1079 1231 1074 q 1370 1081 1350 1082 q 1411 1079 1390 1079 q 1411 1065 1414 1074 q 1403 1046 1408 1056 q 1395 1028 1399 1036 q 1393 1017 1392 1021 q 1230 991 1311 997 q 1065 981 1149 985 q 897 975 982 978 q 725 963 813 972 q 617 869 663 910 q 538 794 571 828 q 480 733 504 761 q 438 676 456 704 q 464 675 453 675 q 488 675 475 675 q 672 675 579 675 q 856 674 764 675 q 915 669 886 674 q 974 657 944 664 q 1018 635 1000 651 q 1038 585 1036 619 z "},"G":{"ha":1963,"x_min":-31,"x_max":1840,"o":"m 1422 411 l 1458 372 q 1444 342 1456 353 q 1422 321 1433 332 q 1358 254 1390 288 q 1297 185 1326 221 q 1235 93 1261 142 q 1201 -17 1210 44 q 1181 -3 1190 -8 q 1165 7 1172 1 q 1189 117 1165 68 q 1244 219 1213 167 q 861 57 1058 119 q 464 -25 664 -6 q 328 -28 396 -32 q 193 -4 261 -24 q 119 28 153 8 q 57 76 86 47 q 8 272 -31 157 q 58 376 28 328 q 128 467 89 425 q 191 537 158 503 q 260 601 224 571 q 649 878 444 761 q 1086 1065 853 996 q 1194 1092 1140 1081 q 1307 1100 1249 1103 q 1389 1083 1350 1097 q 1460 1039 1428 1069 q 1514 944 1506 997 q 1488 839 1522 890 q 1356 701 1433 753 q 1178 628 1278 650 q 1149 623 1164 625 q 1120 624 1135 621 q 1090 634 1106 626 q 1061 657 1075 642 q 1267 730 1171 678 q 1422 865 1364 782 q 1456 942 1454 910 q 1441 996 1458 975 q 1392 1028 1424 1017 q 1324 1042 1361 1039 q 1250 1039 1288 1044 q 1185 1022 1213 1033 q 930 936 1051 990 q 692 813 808 882 q 434 644 557 735 q 207 438 311 554 q 142 358 172 400 q 88 268 111 315 q 69 159 60 203 q 110 89 78 115 q 190 51 142 63 q 293 36 239 39 q 399 38 347 33 q 489 47 451 42 q 893 151 700 78 q 1272 326 1086 225 l 1422 411 m 1840 418 q 1793 438 1818 435 q 1744 438 1768 440 q 1605 435 1674 436 q 1465 426 1536 433 q 1276 403 1371 417 q 1083 375 1182 389 q 1063 386 1072 378 q 1049 410 1053 394 q 1056 417 1053 413 q 1065 422 1060 421 q 1354 482 1210 461 q 1650 500 1499 503 q 1710 497 1681 500 q 1769 490 1739 493 q 1840 418 1831 483 z "},"g":{"ha":515,"x_min":-492,"x_max":531,"o":"m 63 325 q 0 307 22 313 q -36 304 -22 301 q -60 318 -50 307 q -87 350 -71 329 q -82 369 -85 358 q -72 392 -79 381 q 4 494 -39 449 q 106 572 47 540 q 185 598 146 594 q 264 567 224 601 q 289 587 276 578 q 317 608 301 596 q 335 590 325 599 q 356 571 344 582 q 245 433 303 499 q 129 288 188 367 q 321 380 231 336 q 518 463 411 424 q 528 438 525 456 q 515 414 531 421 q 259 293 385 361 q 11 128 133 225 q -34 90 -12 110 q -76 47 -56 69 q -192 -83 -135 -18 q -308 -212 -249 -147 q -370 -274 -339 -244 q -443 -328 -401 -304 q -468 -308 -457 -317 q -490 -293 -479 -300 q -491 -277 -490 -283 q -489 -268 -492 -271 q -431 -189 -460 -229 q -368 -115 -403 -149 q -256 -10 -314 -61 q -140 90 -199 40 q -32 198 -81 140 q 63 318 17 256 q 63 322 64 321 q 63 325 63 322 m 236 533 q 172 545 207 556 q 104 507 138 535 q 43 441 71 479 q 0 369 15 403 q 125 449 67 408 q 236 533 183 489 z "},"h":{"ha":796,"x_min":-76,"x_max":822,"o":"m 336 396 q 376 447 353 424 q 411 504 399 471 q 291 463 350 489 q 176 408 232 438 q 65 348 119 379 q -43 292 11 317 q -58 305 -50 299 q -76 321 -67 311 q -1 481 -47 403 q 101 629 44 558 q 223 763 158 700 q 354 875 288 825 q 456 941 403 913 q 571 985 510 969 q 611 991 594 990 q 640 985 628 992 q 662 965 651 979 q 683 926 672 950 q 660 862 679 890 q 618 807 642 833 q 493 684 558 740 q 356 579 428 628 q 330 560 342 569 q 307 538 318 551 q 337 548 322 542 q 368 557 351 554 q 432 559 401 564 q 483 514 463 554 q 472 471 482 490 q 447 433 461 451 q 417 395 432 414 q 394 354 403 376 q 488 365 432 350 q 603 401 544 381 q 715 442 663 422 q 796 467 768 461 q 811 453 807 464 q 822 431 815 442 q 728 397 778 415 q 629 359 679 378 q 530 324 579 340 q 436 297 481 308 q 388 294 413 290 q 347 312 364 299 q 324 347 329 325 q 336 396 319 368 m 629 935 q 546 917 593 935 q 447 867 499 899 q 344 794 396 836 q 247 707 293 753 q 165 613 201 661 q 110 522 129 565 q 196 556 147 531 q 297 615 244 581 q 401 690 349 649 q 499 775 454 732 q 579 859 544 818 q 629 935 614 900 m 154 460 q 90 446 113 451 q 56 433 68 440 q 39 417 44 426 q 28 389 33 407 q 88 422 58 406 q 154 460 118 439 z "},"I":{"ha":1157,"x_min":-61,"x_max":1347,"o":"m 396 203 q 581 219 490 208 q 765 228 672 231 q 822 222 794 225 q 876 218 849 219 q 944 160 935 214 q 929 134 940 140 q 900 125 918 128 q 883 139 892 132 q 863 153 874 146 q 751 156 821 157 q 607 148 682 154 q 461 131 532 142 q 344 108 390 121 q 327 68 336 89 q 314 26 318 47 q 314 -17 310 6 q 336 -64 318 -40 q 296 -53 311 -61 q 272 -28 281 -46 q 263 20 264 -11 q 264 100 261 51 q 119 74 189 93 q -26 40 49 56 q -61 79 -42 58 q 17 111 -28 97 q 112 138 63 125 q 210 161 161 150 q 301 185 260 172 q 882 1010 510 642 q 694 1004 783 1014 q 517 983 604 994 q 341 953 428 972 q 174 894 254 935 q 176 950 144 926 q 211 970 193 961 q 246 985 229 979 q 353 1017 300 1001 q 461 1043 407 1033 q 712 1076 588 1064 q 965 1085 836 1088 q 1104 1073 1036 1083 q 1240 1046 1172 1063 q 1276 1033 1258 1039 q 1310 1019 1293 1026 q 1346 964 1342 1004 q 1342 949 1347 957 q 1333 931 1338 940 q 1307 955 1317 946 q 1288 969 1297 964 q 1267 977 1279 974 q 1232 986 1254 981 q 1099 1008 1165 1003 q 967 1015 1033 1013 q 939 947 951 981 q 911 878 926 914 q 879 900 897 890 q 805 821 849 872 q 711 704 761 769 q 610 567 661 639 q 515 426 558 494 q 439 299 471 358 q 396 203 407 240 z "},"i":{"ha":388,"x_min":-56,"x_max":410,"o":"m -29 438 q 41 521 14 490 q 84 569 68 551 q 109 594 100 586 q 125 607 118 601 l 168 569 q 90 492 129 529 q 19 411 50 456 q 3 380 8 396 q 0 352 -3 364 q 16 336 3 340 q 54 340 29 332 q 145 375 106 360 q 221 404 185 390 q 294 432 257 418 q 375 464 331 446 q 397 461 388 467 q 410 438 407 456 q 306 394 351 413 q 211 354 260 376 q 117 310 165 333 q 26 283 69 286 q -22 297 -3 281 q -48 337 -40 313 q -51 389 -56 361 q -29 438 -47 417 m 175 646 q 233 725 208 715 q 292 694 258 735 q 253 658 272 676 q 213 621 235 640 q 193 633 203 626 q 175 646 183 639 z "},"H":{"ha":1426,"x_min":-26,"x_max":1485,"o":"m 640 1143 q 658 1128 651 1133 q 668 1119 665 1122 q 660 1079 672 1092 q 643 1054 649 1067 q 515 865 578 958 q 389 679 451 771 q 380 665 382 671 q 375 653 378 658 q 378 644 378 644 q 383 643 379 643 q 399 642 392 643 q 413 643 406 642 q 753 676 583 663 q 1097 697 922 690 q 1256 885 1175 793 q 1431 1060 1338 976 q 1442 1066 1438 1063 q 1453 1072 1447 1069 q 1463 1067 1458 1069 q 1469 1061 1467 1064 q 1477 1053 1475 1058 q 1485 1042 1479 1049 q 1414 957 1457 996 q 1356 894 1383 928 q 1303 826 1329 860 q 1256 765 1279 796 q 1207 701 1232 735 q 1238 689 1222 690 q 1268 683 1253 688 q 1328 665 1300 681 q 1369 611 1356 650 q 1354 597 1361 604 q 1336 582 1347 590 q 1311 606 1321 596 q 1286 631 1301 615 l 1154 631 q 1113 569 1135 599 q 1072 511 1092 539 q 932 272 997 393 q 814 22 867 151 q 796 -24 803 0 q 782 -71 789 -47 q 778 -98 779 -83 q 774 -132 776 -112 q 801 -129 789 -129 q 829 -129 814 -129 q 845 -143 836 -135 q 864 -160 854 -151 q 822 -181 844 -179 q 778 -172 800 -183 q 735 -142 754 -161 q 714 -96 715 -124 q 718 -32 711 -64 q 774 129 743 51 q 883 363 822 250 q 1018 583 944 475 q 1030 603 1025 592 q 1044 631 1035 614 q 680 599 858 614 q 322 567 501 583 q 177 310 246 439 q 56 38 108 181 q 76 34 68 35 q 90 29 83 33 q 106 21 99 26 q 119 11 113 15 q 94 -11 106 -4 q 71 -17 83 -18 q 42 -7 58 -17 q 4 19 26 3 q 4 49 4 35 q 7 79 4 64 q 19 128 11 103 q 38 178 26 154 q 115 339 76 260 q 192 497 154 418 q 205 524 199 511 q 219 553 211 538 q 176 553 197 556 q 133 549 154 551 q 91 544 113 546 q 47 544 69 542 q 55 531 51 536 q 61 519 58 525 q 63 514 63 517 q 65 508 63 511 q 47 508 58 504 q 23 522 36 513 q -3 546 10 532 q -26 575 -17 560 q 42 600 4 596 q 119 610 79 604 q 193 620 156 615 q 268 631 231 625 q 440 894 353 765 q 640 1143 528 1022 z "},"๎":{"ha":0,"x_min":-1544,"x_max":1253,"o":"m -1457 -292 q -1439 -316 -1446 -307 q -1425 -336 -1432 -325 q -1475 -349 -1457 -344 q -1504 -350 -1493 -353 q -1524 -337 -1515 -347 q -1544 -307 -1532 -326 q -1530 -267 -1544 -282 q -1497 -243 -1515 -253 q -1376 -174 -1436 -201 q -1086 -55 -1235 -103 q -786 31 -937 -7 q -449 101 -618 72 q -107 149 -279 131 q 113 166 4 160 q 331 169 221 172 q 589 155 461 165 q 844 117 717 144 q 898 103 872 111 q 950 83 924 94 q 988 60 972 75 q 1007 19 1003 44 q 1004 5 1007 13 q 999 -18 1001 -3 q 950 31 976 14 q 894 56 924 47 q 835 66 865 64 q 776 72 806 68 q 461 102 618 96 q 143 101 304 108 q -158 76 -8 94 q -458 31 -308 58 q -825 -49 -644 -3 q -1183 -162 -1006 -94 q -1322 -219 -1254 -189 q -1457 -292 -1390 -249 m 1224 29 q 1237 9 1232 17 q 1244 -5 1242 1 q 1249 -18 1247 -11 q 1253 -37 1250 -25 l 1124 -37 q 1111 -16 1117 -26 q 1099 4 1106 -6 q 1128 26 1113 21 q 1159 33 1143 32 q 1191 31 1175 33 q 1224 29 1207 29 z "},"๎":{"ha":0,"x_min":-1540,"x_max":1210,"o":"m -1501 -207 q -1483 -260 -1493 -237 q -1492 -263 -1489 -261 q -1497 -265 -1496 -265 q -1540 -189 -1540 -224 q -1496 -121 -1540 -154 q -1444 -86 -1471 -101 q -1389 -58 -1417 -71 q -1183 9 -1289 -15 q -972 53 -1078 33 q -678 89 -825 76 q -382 113 -531 101 q 67 125 -157 125 q 517 118 292 125 q 819 99 669 114 q 1121 53 969 85 q 1153 44 1136 49 q 1190 33 1171 40 q 1201 8 1197 21 q 1210 -19 1206 -6 q 1171 -49 1193 -43 q 1126 -58 1149 -56 q 1034 -72 1081 -65 q 940 -83 988 -79 q 826 -93 882 -90 q 710 -101 769 -96 q 363 -114 536 -110 q 324 -115 343 -117 q 286 -112 306 -114 q 276 -87 279 -99 q 268 -65 274 -76 q 278 -56 275 -61 q 286 -51 282 -51 q 312 -47 300 -49 q 335 -46 324 -46 q 621 -40 479 -49 q 906 -21 763 -32 q 991 -14 949 -17 q 1083 4 1033 -11 q 979 22 1028 14 q 882 33 931 31 q 674 53 778 44 q 467 65 571 63 q 107 69 285 68 q -253 64 -71 69 q -687 36 -471 56 q -1118 -32 -903 17 q -1256 -68 -1187 -47 q -1390 -118 -1324 -89 q -1427 -136 -1412 -128 q -1453 -153 -1442 -144 q -1476 -176 -1465 -162 q -1501 -207 -1487 -189 z "},"๎":{"ha":0,"x_min":-1650,"x_max":1190,"o":"m -1625 -218 q -1650 -164 -1640 -187 q -1624 -144 -1642 -151 q -1587 -131 -1607 -136 q -1550 -122 -1568 -125 q -1521 -119 -1532 -119 q -1383 -103 -1454 -115 q -1231 -69 -1312 -90 q -1053 -21 -1149 -49 q -842 43 -957 7 q -771 53 -807 54 q -703 19 -735 51 q -630 28 -667 24 q -557 35 -593 32 q -251 69 -403 51 q 53 100 -100 86 q 438 120 247 115 q 821 115 628 125 q 945 105 883 113 q 1069 88 1007 97 q 1121 76 1094 83 q 1171 47 1147 69 q 1181 21 1175 36 q 1190 -7 1186 6 q 1167 -40 1182 -31 q 1133 -53 1151 -49 q 1083 -65 1108 -60 q 1032 -78 1058 -71 q 960 -92 996 -85 q 883 -106 924 -99 q 868 -67 878 -87 q 933 -37 896 -49 q 1003 -17 969 -25 q 1065 -4 1038 -10 q 1102 6 1092 1 q 1101 18 1113 11 q 1046 38 1089 25 q 457 69 756 71 q -148 35 158 67 q -767 -52 -454 4 q -1396 -182 -1079 -108 q -1467 -199 -1432 -190 q -1539 -212 -1503 -207 q -1581 -216 -1560 -215 q -1625 -218 -1601 -217 z "},"๎":{"ha":0,"x_min":-1625,"x_max":1356,"o":"m 1163 46 q 1121 40 1142 39 q 1079 44 1100 42 q 794 54 936 56 q 510 46 653 53 q 223 36 365 40 q -64 25 81 32 q -478 7 -271 17 q -892 -12 -685 -3 q -1119 -22 -1007 -17 q -1344 -32 -1232 -28 q -1464 -37 -1406 -35 q -1583 -42 -1522 -39 l -1618 -42 q -1623 -26 -1621 -32 q -1625 -17 -1625 -21 q -1614 -4 -1618 -4 q -1576 3 -1594 -1 q -1539 7 -1558 7 q -1371 17 -1454 14 q -1204 25 -1287 21 q -859 44 -1031 36 q -514 64 -687 53 q -344 72 -429 68 q -172 78 -258 75 q 365 94 97 86 q 901 96 632 103 q 1013 88 958 93 q 1125 79 1068 82 q 1151 74 1138 78 q 1163 46 1164 69 m 1236 29 q 1313 79 1265 89 q 1332 74 1322 78 q 1348 63 1342 69 q 1355 49 1354 57 q 1347 31 1356 40 q 1326 18 1339 19 q 1299 19 1314 17 q 1269 24 1285 21 q 1236 29 1253 28 z "},"โข":{"ha":554,"x_min":36,"x_max":654,"o":"m 368 850 q 383 858 376 853 q 396 868 389 863 l 482 947 q 542 1003 511 976 q 604 1056 572 1031 q 621 1069 613 1063 q 640 1081 629 1076 q 649 1076 647 1079 q 654 1068 651 1072 q 651 1058 654 1061 q 643 1049 647 1054 l 596 992 q 538 911 564 953 q 490 824 511 869 q 483 808 486 817 q 478 790 481 799 q 476 771 475 779 q 486 756 476 763 q 458 776 460 758 q 460 798 456 788 q 467 819 464 808 q 536 946 492 888 q 560 978 547 963 q 585 1010 572 994 q 588 1019 588 1015 l 576 1010 l 463 903 q 414 857 442 881 l 386 836 q 369 831 375 829 q 353 839 363 832 q 349 842 350 840 q 347 844 349 843 q 347 867 343 857 l 368 910 q 398 956 382 933 q 431 999 414 978 q 439 1010 435 1006 q 446 1022 443 1015 l 438 1017 q 356 925 390 974 q 310 860 332 893 q 264 794 288 826 l 256 778 q 240 783 247 776 l 246 796 q 264 825 256 811 q 282 853 272 839 q 329 921 306 888 q 381 986 353 954 q 411 1018 396 1003 q 446 1049 426 1033 l 431 1049 q 360 1045 399 1046 q 301 1039 321 1044 l 244 979 q 239 971 243 978 q 219 928 232 947 q 192 889 207 908 q 169 863 181 875 q 146 838 158 850 l 67 761 q 59 755 63 758 q 50 749 56 751 l 36 763 l 49 783 q 69 810 60 797 q 90 836 79 822 l 221 983 l 228 993 q 210 1010 225 1007 q 183 1014 194 1013 q 74 1006 128 1018 l 47 999 q 43 1004 44 1001 q 39 1010 42 1007 q 49 1015 44 1014 q 58 1018 54 1017 q 122 1032 90 1025 q 183 1044 153 1039 q 237 1053 211 1050 q 290 1060 263 1057 q 364 1067 326 1065 q 439 1067 401 1068 q 453 1066 446 1067 q 467 1064 460 1065 q 469 1063 468 1064 l 475 1067 l 488 1056 q 488 1047 490 1050 q 483 1039 486 1043 l 463 1010 q 432 966 447 988 q 401 922 417 944 q 372 871 383 896 l 365 853 l 368 850 m 196 1026 q 239 1003 224 1018 l 271 1035 q 233 1033 258 1036 q 196 1026 208 1029 m 115 832 q 140 852 125 839 q 167 881 154 865 q 191 912 181 897 q 206 936 201 926 q 159 885 182 911 q 115 832 136 860 z "},":":{"ha":365,"x_min":22,"x_max":221,"o":"m 26 301 q 36 357 22 338 q 78 380 56 383 q 115 344 101 376 q 108 310 117 326 q 85 286 99 294 q 55 280 71 278 q 26 301 39 282 m 131 490 q 140 546 126 526 q 183 569 160 572 q 219 533 206 565 q 212 499 221 515 q 189 475 203 483 q 159 469 175 467 q 131 490 143 471 z "},"ยฑ":{"ha":774,"x_min":-51,"x_max":617,"o":"m 488 657 q 475 614 488 629 q 448 588 463 599 q 419 565 433 576 q 404 532 406 553 q 460 533 432 532 q 517 532 489 535 q 544 530 529 531 q 572 525 558 529 q 597 512 585 521 q 617 485 608 503 q 481 476 547 481 q 349 467 415 472 q 301 392 317 424 q 278 340 285 360 q 269 310 271 319 q 265 304 267 301 q 227 331 243 311 q 215 371 211 351 q 225 398 219 385 q 238 422 231 411 l 249 443 q 183 438 213 442 q 126 428 154 435 q 72 430 97 422 q 26 469 47 438 q 46 478 38 474 q 64 485 54 483 q 276 510 168 499 q 310 525 297 513 q 335 553 324 538 q 391 618 363 585 q 464 681 419 651 l 488 657 m -28 161 q -40 182 -35 172 q -51 199 -44 192 q 12 224 -29 213 q 104 244 53 236 q 213 258 156 253 q 324 263 269 263 q 428 260 379 264 q 510 247 476 256 q 516 240 513 243 q 522 232 519 236 q 524 224 525 229 q 526 213 524 219 l 390 213 q 319 206 354 210 q 251 199 285 203 q 181 192 215 196 q 111 183 147 189 q 42 173 76 179 q -28 161 8 167 z "},"\"":{"ha":418,"x_min":186,"x_max":393,"o":"m 306 950 q 299 908 307 933 q 277 857 290 883 q 249 806 264 831 q 219 769 233 782 q 215 769 217 769 q 211 768 214 768 q 199 770 204 768 q 186 772 193 772 q 229 869 213 821 q 258 963 246 918 l 306 950 m 392 950 q 385 908 393 933 q 363 857 376 883 q 335 806 350 831 q 306 769 319 782 q 301 769 303 769 q 297 768 300 768 q 285 770 290 768 q 272 772 279 772 q 315 869 299 821 q 344 963 332 918 l 392 950 z "},"โ":{"ha":418,"x_min":186,"x_max":393,"o":"m 306 950 q 299 908 307 933 q 277 857 290 883 q 249 806 264 831 q 219 769 233 782 q 215 769 217 769 q 211 768 214 768 q 199 770 204 768 q 186 772 193 772 q 229 869 213 821 q 258 963 246 918 l 306 950 m 392 950 q 385 908 393 933 q 363 857 376 883 q 335 806 350 831 q 306 769 319 782 q 301 769 303 769 q 297 768 300 768 q 285 770 290 768 q 272 772 279 772 q 315 869 299 821 q 344 963 332 918 l 392 950 z "},"โ":{"ha":418,"x_min":188,"x_max":394,"o":"m 275 781 q 282 822 274 797 q 303 874 290 847 q 332 924 317 900 q 361 961 347 949 q 365 962 364 961 q 369 963 367 963 q 382 960 376 963 q 394 958 388 958 q 351 861 368 910 q 322 768 335 813 l 275 781 m 189 781 q 196 822 188 797 q 217 874 204 847 q 246 924 231 900 q 275 961 261 949 q 279 962 278 961 q 283 963 281 963 q 296 960 290 963 q 308 958 301 958 q 265 861 282 910 q 236 768 249 813 l 189 781 z "},"โ":{"ha":322,"x_min":186,"x_max":307,"o":"m 306 950 q 299 908 307 933 q 277 857 290 883 q 249 806 264 831 q 219 769 233 782 q 215 769 217 769 q 211 768 214 768 q 199 770 204 768 q 186 772 193 772 q 229 869 213 821 q 258 963 246 918 l 306 950 z "},"โ":{"ha":322,"x_min":188,"x_max":308,"o":"m 189 781 q 196 822 188 797 q 217 874 204 847 q 246 924 231 900 q 275 961 261 949 q 279 962 278 961 q 283 963 281 963 q 296 960 290 963 q 308 958 301 958 q 265 861 282 910 q 236 768 249 813 l 189 781 z "},"๎":{"ha":5938,"x_min":-12,"x_max":5833,"o":"m 1274 324 q 1339 361 1306 342 q 1408 401 1372 381 q 1435 359 1432 375 q 1426 331 1438 343 q 1392 305 1415 318 q 1340 272 1368 292 q 913 70 1136 147 q 463 -28 690 -7 q 328 -31 396 -35 q 193 -7 261 -26 q 118 26 153 7 q 54 74 83 46 q -1 164 11 114 q 6 271 -12 214 q 56 374 25 326 q 128 465 88 422 q 190 536 157 501 q 260 600 224 571 q 648 878 444 761 q 1086 1065 851 994 q 1196 1091 1142 1081 q 1307 1099 1250 1101 q 1390 1082 1351 1096 q 1463 1039 1428 1068 q 1516 943 1507 997 q 1489 839 1525 889 q 1357 699 1435 751 q 1179 626 1279 647 q 1121 622 1151 619 q 1061 654 1090 625 q 1269 729 1172 676 q 1424 865 1365 782 q 1457 942 1454 910 q 1442 996 1460 975 q 1393 1028 1425 1017 q 1324 1041 1361 1039 q 1251 1038 1288 1043 q 1186 1022 1214 1033 q 931 935 1053 990 q 692 814 810 881 q 434 643 557 733 q 206 435 311 553 q 141 356 172 399 q 85 267 110 314 q 66 158 57 201 q 108 87 75 114 q 190 48 140 60 q 293 34 239 36 q 399 36 347 32 q 490 46 451 40 q 894 149 700 76 q 1274 324 1088 222 m 4474 81 q 4511 58 4496 72 q 4531 17 4526 43 q 4528 2 4531 10 q 4524 -19 4526 -6 q 4474 29 4501 13 q 4418 53 4447 46 q 4359 64 4389 61 q 4300 69 4329 67 q 3983 99 4140 93 q 3663 99 3826 106 q 3061 29 3363 85 q 2694 -51 2875 -6 q 2336 -164 2514 -96 q 2197 -222 2265 -192 q 2061 -296 2128 -251 q 2078 -319 2072 -311 q 2092 -339 2085 -328 q 2042 -351 2060 -347 q 2013 -353 2024 -356 q 1993 -340 2001 -350 q 1972 -311 1985 -331 q 1987 -272 1972 -286 q 2019 -247 2001 -257 q 2143 -176 2081 -203 q 2432 -58 2283 -106 q 2732 29 2581 -10 q 3072 100 2901 71 q 3415 147 3242 129 q 3633 165 3525 157 q 3853 168 3742 172 q 4111 153 3983 163 q 4367 114 4239 143 q 4422 100 4396 108 q 4474 81 4447 92 m 4621 0 q 4651 23 4635 17 q 4683 30 4667 29 q 4715 28 4699 31 q 4747 28 4732 26 q 4762 8 4757 15 q 4769 -7 4767 0 q 4774 -22 4772 -14 q 4776 -42 4775 -29 l 4647 -42 q 4633 -19 4639 -29 q 4621 0 4628 -8 m 5826 464 q 5833 445 5833 453 q 5830 433 5833 438 q 5822 426 5826 428 q 5814 424 5817 424 q 5668 374 5740 399 q 5526 329 5596 349 q 5388 297 5456 310 q 5256 285 5319 285 q 5151 323 5186 285 q 5124 408 5115 361 q 5004 364 5072 388 q 4866 321 4936 340 q 4733 289 4796 301 q 4629 276 4671 276 q 4585 288 4604 276 q 4556 317 4567 299 q 4542 358 4544 335 q 4546 408 4539 382 q 4547 418 4546 415 q 4421 406 4486 411 q 4301 393 4356 400 q 4269 363 4285 376 q 4235 339 4253 350 q 4113 274 4181 294 q 4018 286 4065 260 q 3970 343 3981 310 q 3986 410 3960 376 q 3892 390 3940 400 q 3818 378 3843 381 q 3762 393 3785 375 q 3739 440 3739 411 q 3741 482 3740 460 q 3744 531 3742 504 q 3606 455 3668 507 q 3494 347 3543 403 q 3465 311 3479 328 q 3435 275 3451 294 q 3415 288 3424 282 q 3396 300 3406 293 q 3417 343 3403 319 q 3454 394 3431 367 q 3303 340 3379 367 q 3161 296 3228 313 q 3113 293 3138 289 q 3070 310 3088 297 q 3048 345 3053 324 q 3061 394 3043 367 q 3100 445 3076 421 q 3136 504 3124 469 q 3015 463 3074 489 q 2901 406 2957 436 q 2790 347 2844 376 q 2681 292 2735 317 q 2665 304 2674 299 q 2647 319 2657 310 q 2669 376 2657 347 q 2694 432 2681 404 q 2613 417 2650 428 q 2528 394 2575 406 q 2479 378 2503 388 q 2432 360 2456 368 q 2295 306 2363 332 q 2160 253 2228 279 q 2075 220 2119 235 q 1988 189 2031 206 q 1952 185 1968 182 q 1925 211 1936 188 q 1942 235 1929 229 q 1969 247 1954 240 q 2163 322 2068 285 q 2354 397 2257 360 q 2371 404 2361 400 q 2400 418 2381 408 q 2324 422 2358 424 q 2258 414 2290 421 q 2196 425 2219 406 q 2128 397 2160 410 q 2064 372 2096 385 q 1999 343 2032 358 q 1926 308 1965 328 q 1808 290 1860 278 q 1729 371 1757 301 q 1656 326 1688 346 q 1593 286 1624 306 q 1563 273 1575 276 q 1540 272 1551 269 q 1517 283 1529 274 q 1486 310 1504 293 q 1515 401 1493 367 q 1576 468 1538 436 q 1594 483 1585 475 q 1613 501 1603 492 q 1731 563 1668 542 q 1869 560 1793 583 q 1902 583 1888 572 q 1932 606 1917 594 q 1953 588 1943 596 q 1974 569 1963 581 q 1897 491 1936 528 q 1826 408 1857 454 q 1808 377 1815 393 q 1802 350 1801 361 q 1815 335 1803 339 q 1854 343 1826 332 q 1944 376 1904 363 q 2022 403 1985 390 q 2096 430 2058 417 q 2178 460 2133 443 q 2199 483 2179 476 q 2301 535 2250 510 q 2404 585 2353 561 q 2447 593 2425 594 q 2490 561 2469 592 q 2317 475 2392 532 q 2359 470 2338 471 q 2401 467 2381 469 q 2442 457 2422 464 q 2479 435 2463 450 q 2539 450 2508 442 q 2600 465 2569 458 q 2660 476 2631 472 q 2715 478 2690 479 l 2719 478 q 2883 697 2790 594 q 3079 875 2976 799 q 3182 942 3128 913 q 3296 986 3236 971 q 3335 992 3319 992 q 3364 985 3351 992 q 3387 964 3376 978 q 3410 926 3397 950 q 3386 862 3406 890 q 3343 808 3367 833 q 3218 683 3283 740 q 3081 578 3153 626 q 3029 538 3050 560 q 3060 547 3044 540 q 3093 556 3076 553 q 3126 561 3110 560 q 3156 559 3142 563 q 3184 545 3171 556 q 3208 514 3197 535 q 3196 469 3207 489 q 3171 431 3185 450 q 3142 394 3157 413 q 3119 353 3128 375 q 3211 363 3156 349 q 3325 398 3267 378 q 3436 438 3383 418 q 3518 464 3489 457 q 3569 514 3542 489 q 3628 564 3597 539 q 3664 565 3647 565 q 3694 569 3681 565 q 3765 565 3735 582 q 3801 514 3796 549 q 3800 472 3804 492 q 3796 431 3796 451 q 3917 447 3858 436 q 4033 463 3975 457 l 4042 471 q 4131 538 4083 510 q 4233 582 4178 567 q 4258 585 4244 585 q 4282 585 4271 586 q 4328 569 4310 582 q 4356 538 4347 557 q 4361 494 4364 518 q 4342 446 4358 471 q 4390 448 4360 446 q 4452 452 4419 450 q 4514 456 4485 454 q 4561 458 4543 458 l 4564 458 q 4560 488 4567 476 q 4590 521 4575 507 q 4617 550 4606 535 q 4731 689 4671 624 q 4860 814 4790 754 q 4982 901 4918 863 q 5118 963 5046 939 q 5142 971 5129 967 q 5169 977 5156 975 q 5196 977 5183 979 q 5217 967 5208 975 q 5245 914 5244 935 q 5221 867 5246 893 q 5101 751 5164 804 q 4897 615 5001 676 q 4685 497 4793 554 q 4619 429 4643 474 q 4599 332 4596 385 q 4630 326 4603 324 q 4700 337 4657 328 q 4799 360 4743 346 q 4913 392 4854 375 q 5033 428 4972 410 q 5146 464 5093 446 q 5193 510 5165 490 q 5284 552 5236 538 q 5388 565 5332 567 q 5426 549 5411 564 q 5446 503 5440 535 q 5422 474 5446 489 q 5359 445 5397 458 q 5272 421 5321 432 q 5175 403 5224 410 q 5191 358 5171 371 q 5241 341 5211 344 q 5303 340 5271 338 q 5357 344 5336 343 q 5597 398 5483 364 q 5826 464 5710 432 m 5349 508 q 5295 498 5317 508 q 5246 464 5274 488 q 5302 481 5278 472 q 5349 508 5326 489 m 5175 915 q 5041 858 5108 896 q 4912 773 4974 821 q 4797 670 4850 725 q 4701 561 4743 615 q 4843 644 4765 597 q 4990 739 4921 690 q 5111 834 5060 788 q 5175 915 5163 881 m 1572 357 q 1638 394 1607 376 q 1700 430 1669 411 q 1761 469 1731 449 q 1826 515 1792 489 q 1685 485 1746 521 q 1572 357 1625 450 m 3354 933 q 3271 915 3318 933 q 3172 866 3224 897 q 3069 793 3121 835 q 2971 706 3017 751 q 2889 613 2925 660 q 2833 522 2853 565 q 2919 555 2871 531 q 3021 614 2968 579 q 3126 690 3074 649 q 3224 774 3179 732 q 3304 858 3269 817 q 3354 933 3339 900 m 2751 388 q 2813 419 2783 403 q 2879 458 2842 436 q 2815 443 2838 449 q 2780 431 2792 438 q 2763 414 2768 424 q 2751 388 2757 404 m 4033 319 q 4108 327 4074 317 q 4167 365 4142 338 q 4104 378 4125 363 q 4068 417 4083 393 q 4035 373 4049 394 q 4033 319 4022 351 m 4268 444 q 4299 485 4286 467 q 4307 542 4313 504 q 4212 520 4246 536 q 4160 475 4178 504 q 4145 433 4139 442 q 4172 426 4151 424 q 4220 437 4193 429 q 4268 444 4247 444 z "},"$":{"ha":771,"x_min":-58,"x_max":732,"o":"m 422 699 q 385 648 403 672 q 349 597 368 624 q 415 583 382 589 q 478 568 447 576 q 537 546 510 560 q 588 510 564 532 q 609 463 611 488 q 583 418 607 438 q 533 385 560 400 q 479 360 507 371 q 335 317 408 331 q 186 294 263 303 q 172 294 179 294 q 153 293 164 293 q 102 203 122 250 q 75 101 82 157 q 37 128 43 108 q 38 171 31 147 q 53 229 44 200 q 72 286 63 258 q 13 300 35 294 q -20 313 -8 306 q -40 331 -32 321 q -58 361 -47 342 l 114 361 q 172 453 143 408 q 229 547 200 499 q 195 558 211 554 q 164 569 179 563 q 135 584 150 576 q 110 604 121 592 q 89 650 89 626 q 110 694 89 674 q 146 728 126 713 q 186 751 165 743 q 284 794 235 775 q 385 833 333 814 q 422 844 403 840 q 457 853 440 847 q 526 925 493 889 q 593 999 560 961 q 611 980 604 988 q 625 961 618 972 q 596 920 610 940 q 564 875 582 900 q 608 867 586 865 q 649 867 629 869 q 682 862 669 865 q 703 850 694 858 q 719 827 713 842 q 732 789 725 813 q 674 742 710 763 q 597 708 639 721 q 509 693 554 696 q 422 699 464 690 m 196 371 q 426 410 335 381 q 554 485 518 439 q 428 515 496 503 q 303 532 361 528 q 252 457 278 496 q 196 371 226 418 m 146 632 q 188 624 172 626 q 215 619 203 621 q 240 615 226 617 q 274 610 253 613 q 323 680 297 644 q 376 751 349 715 q 233 708 293 740 q 146 632 174 676 m 638 814 q 577 808 608 811 q 517 799 546 804 q 479 751 483 794 q 563 768 524 750 q 638 814 601 786 z "},"!":{"ha":428,"x_min":-29,"x_max":667,"o":"m 631 1161 q 651 1147 644 1154 q 660 1135 656 1140 q 667 1124 664 1131 q 647 1080 661 1100 q 613 1056 633 1060 q 574 1038 589 1051 q 549 1008 560 1024 q 462 908 506 958 q 382 803 418 858 q 272 638 324 721 q 167 469 219 554 q 127 392 144 433 q 89 310 110 351 q 72 320 82 314 q 56 331 63 326 q 60 388 51 363 q 79 438 68 414 q 243 740 154 594 q 450 1017 332 886 q 510 1074 478 1047 q 574 1128 542 1101 q 602 1147 588 1139 q 631 1161 617 1154 m -25 119 q -15 175 -29 156 q 27 198 4 201 q 64 163 50 194 q 56 128 65 144 q 33 104 47 113 q 3 98 19 96 q -25 119 -12 100 z "}}}
